<svg width="98" height="50" viewBox="0 0 98 50" fill="none" xmlns="http://www.w3.org/2000/svg">
<g filter="url(#filter0_ddd_84_724)">
<mask id="path-1-inside-1_84_724" fill="white">
<path fill-rule="evenodd" clip-rule="evenodd" d="M9.2 0.70401V24H20.272V19.456H17.552V8.51201L25.328 10.72V24H33.68V10.72L41.456 8.51201V19.456H38.736V24H49.808V0.70401L29.52 6.68801L9.2 0.70401ZM56.2 1.60001V24H89.448V1.60001H56.2ZM81.096 19.456H64.552V6.14401H81.096V19.456ZM17.5938 30.9297C17.5938 30.5859 17.2188 30.4141 16.4688 30.4141C15.9167 30.4141 15.3438 30.5052 14.75 30.6875C14.1615 30.8646 13.6458 31.0703 13.2031 31.3047C13.5312 30.2422 13.8906 29.3438 14.2812 28.6094C14.3802 28.4167 14.4297 28.2682 14.4297 28.1641C14.4297 27.8932 14.0234 27.7578 13.2109 27.7578C11.8464 27.7578 10.8281 27.9193 10.1562 28.2422C9.48438 28.5651 8.93229 29.2031 8.5 30.1563C8.30208 30.599 8.1276 31.0339 7.97656 31.4609C7.82552 31.888 7.65885 32.3568 7.47656 32.8672C7.29948 33.3776 7.10938 33.8412 6.90625 34.2578C6.70312 34.6693 6.48698 34.9531 6.25781 35.1094C6.03385 35.2604 5.68229 35.3359 5.20312 35.3359C5.07292 35.3359 4.96094 35.3724 4.86719 35.4453C4.76823 35.513 4.71094 35.6068 4.69531 35.7266C4.69531 35.9349 4.88021 36.1511 5.25 36.375C5.61979 36.5938 6.11458 36.7787 6.73438 36.9297C7.84375 37.2005 8.98958 37.2448 10.1719 37.0625C10.4219 37.0208 10.6328 36.9583 10.8047 36.875C10.9818 36.7917 11.1536 36.6849 11.3203 36.5547C11.487 36.4245 11.6302 36.2578 11.75 36.0547C11.8698 35.8516 11.9583 35.6511 12.0156 35.4531C12.0781 35.2552 12.3698 34.224 12.8906 32.3594C13.2396 32.3802 13.5938 32.4636 13.9531 32.6094C14.3125 32.7552 14.6068 32.9089 14.8359 33.0703C15.0703 33.2266 15.2995 33.3724 15.5234 33.5078C15.7474 33.638 15.9401 33.7031 16.1016 33.7031C16.263 33.7031 16.4271 33.5807 16.5938 33.3359C16.7604 33.0912 16.9688 32.6849 17.2188 32.1172C17.4688 31.5443 17.5938 31.1484 17.5938 30.9297ZM16.0859 27.1875C17.1745 27.5938 18.0964 28.1276 18.8516 28.7891C19.0234 28.9297 19.1771 29 19.3125 29C19.4531 29 19.5781 28.9844 19.6875 28.9531C19.8594 28.9011 20.0781 28.6511 20.3438 28.2031C20.6094 27.75 20.8385 27.2761 21.0312 26.7813C21.224 26.2865 21.3281 25.9323 21.3438 25.7188C21.3438 25.3177 20.5755 25.0261 19.0391 24.8438C18.2109 24.7396 17.1823 24.6875 15.9531 24.6875C14.0677 24.6875 12.3333 24.9323 10.75 25.4219C10.0573 25.6406 9.4349 25.875 8.88281 26.125C8.33594 26.375 7.91927 26.6172 7.63281 26.8516C7.34635 27.0859 7.20312 27.2865 7.20312 27.4531C7.20312 27.6146 7.28906 27.6953 7.46094 27.6953C7.60156 27.6953 7.89583 27.5964 8.34375 27.3984C8.79167 27.1953 9.48177 27.0078 10.4141 26.8359C11.3464 26.6589 12.1432 26.5703 12.8047 26.5703C13.9089 26.5703 15.0026 26.7761 16.0859 27.1875ZM28.2734 33.0781C27.6172 34.5781 26.7995 35.3281 25.8203 35.3281C25.4818 35.3281 25.2083 35.2109 25 34.9766C24.7917 34.7422 24.6875 34.3906 24.6875 33.9219C24.6875 33.4479 24.8359 32.9167 25.1328 32.3281C25.4297 31.7396 25.8203 31.2526 26.3047 30.8672C26.7943 30.4766 27.2474 30.2813 27.6641 30.2813C28.0859 30.2813 28.3672 30.362 28.5078 30.5234C28.6536 30.6849 28.7266 30.9792 28.7266 31.4063C28.7266 31.8333 28.5755 32.3906 28.2734 33.0781ZM33.4609 28.875L29.8828 28.7109C29.3776 28.7109 29.125 28.8412 29.125 29.1016L29.1328 29.4375C29.1328 29.5052 29.1302 29.5547 29.125 29.5859C28.4688 29.0026 27.5495 28.7109 26.3672 28.7109C25.5964 28.7109 24.875 28.8203 24.2031 29.0391C22.9896 29.4349 22.0208 30.1563 21.2969 31.2031C20.6354 32.1458 20.3047 33.1771 20.3047 34.2969C20.3047 35.3594 20.6589 36.138 21.3672 36.6328C22.0182 37.0859 22.8151 37.3125 23.7578 37.3125C25.1328 37.3125 26.2266 36.9063 27.0391 36.0938C27.2995 36.9063 28.0677 37.3125 29.3438 37.3125C30.1094 37.3125 30.862 37.2396 31.6016 37.0938C32.3464 36.9531 32.9818 36.7761 33.5078 36.5625C33.9725 36.3766 34.3681 36.2013 34.6946 36.0366C34.5388 36.4652 34.4609 36.7212 34.4609 36.8047C34.4609 36.8984 34.4948 36.9792 34.5625 37.0469C34.6354 37.1198 34.7005 37.1563 34.7578 37.1563L38.7812 37.0703C38.9948 37.0703 39.1328 36.9662 39.1953 36.7578C39.263 36.5495 39.5495 35.6849 40.0547 34.1641C40.5651 32.6432 40.9193 31.5339 41.1172 30.8359C41.5339 30.7526 41.9062 30.7109 42.2344 30.7109C42.9583 30.7109 43.3203 30.9427 43.3203 31.4063C43.3203 31.8177 43.0573 32.6146 42.5312 33.7969C42.0104 34.974 41.75 35.7917 41.75 36.25C41.75 36.9583 42.5234 37.3125 44.0703 37.3125C44.7266 37.3125 45.4141 37.237 46.1328 37.0859C46.8568 36.9401 47.4922 36.763 48.0391 36.5547C48.5911 36.3464 49.0521 36.1563 49.4219 35.9844C49.6765 35.8624 49.888 35.7504 50.0562 35.6482C50.2235 35.911 50.4443 36.1299 50.7188 36.3047C51.0469 36.513 51.4036 36.6667 51.7891 36.7656C52.1745 36.8594 52.6484 36.9063 53.2109 36.9063C53.7734 36.9063 54.401 36.7891 55.0938 36.5547C55.7865 36.3203 56.4115 35.9974 56.9688 35.5859C56.8125 36.0495 56.6432 36.5365 56.4609 37.0469C54.8984 37.2604 53.3958 37.5651 51.9531 37.9609C51.1562 38.1797 50.5052 38.4375 50 38.7344C49.5 39.0313 49.25 39.3386 49.25 39.6563C49.25 40.5938 50.4714 41.0625 52.9141 41.0625C54.3151 41.0625 55.5729 40.9375 56.6875 40.6875C57.3281 40.5469 57.8958 40.3646 58.3906 40.1406C58.8854 39.9167 59.3255 39.6146 59.7109 39.2344C60.0964 38.8594 60.362 38.4271 60.5078 37.9375L60.7188 37.2422C62.6667 36.7005 64.0703 36.1068 64.9297 35.4609C65.1172 35.3255 65.2109 35.1875 65.2109 35.0469C65.2109 34.8646 65.0964 34.7734 64.8672 34.7734C64.7578 34.7734 64.6042 34.8203 64.4062 34.9141C63.2188 35.4766 62.099 35.9011 61.0469 36.1875C61.3854 35.1302 61.7422 34.0781 62.1172 33.0313C62.4922 31.9844 62.7552 31.237 62.9062 30.7891C63.0625 30.3412 63.1406 30.0078 63.1406 29.7891C63.1406 29.5651 63.0156 29.3672 62.7656 29.1953C62.5208 29.0234 62.2188 28.9375 61.8594 28.9375C61.5052 28.9375 61.013 28.9948 60.3828 29.1094C59.7578 29.2188 59.2083 29.3464 58.7344 29.4922C58.0781 28.9714 57.151 28.7109 55.9531 28.7109C54.7552 28.7109 53.6823 28.9401 52.7344 29.3984C51.7917 29.8516 51.0443 30.4896 50.4922 31.3125C49.9401 32.1354 49.6641 33.0625 49.6641 34.0938C49.6641 34.387 49.6928 34.6567 49.7502 34.9027C49.7102 34.9181 49.6685 34.935 49.625 34.9531C49.3438 35.0729 48.9062 35.2266 48.3125 35.4141C47.724 35.5964 47.3073 35.6875 47.0625 35.6875C46.6771 35.6875 46.4844 35.4453 46.4844 34.9609C46.4844 34.7162 46.7266 34.0755 47.2109 33.0391C47.6953 32.0026 47.9375 31.1641 47.9375 30.5234C47.9375 29.8984 47.7083 29.4323 47.25 29.125C46.8385 28.849 46.3828 28.7109 45.8828 28.7109C44.7057 28.7109 43.2005 29.0938 41.3672 29.8594C41.4245 29.599 41.4531 29.4115 41.4531 29.2969C41.4531 29.1771 41.4193 29.0781 41.3516 29C41.2839 28.9167 41.1823 28.875 41.0469 28.875L37.3438 28.9609C36.8385 28.9609 36.5859 29.0912 36.5859 29.3516L36.5938 29.6484C36.5938 30.1797 36.4818 30.8516 36.2578 31.6641C36.0391 32.4714 35.7943 33.2136 35.5234 33.8906C35.3853 34.2402 35.2527 34.5784 35.1258 34.9054C35.1003 34.9178 35.074 34.9311 35.0469 34.9453C34.8333 35.0599 34.4219 35.2292 33.8125 35.4531C33.2083 35.6719 32.7917 35.7813 32.5625 35.7813C32.3333 35.7813 32.1771 35.7448 32.0938 35.6719C32.0156 35.599 31.9766 35.4323 31.9766 35.1719C31.9766 34.9063 32.1328 34.3672 32.4453 33.5547C32.763 32.737 33.0781 31.9141 33.3906 31.0859C33.7083 30.2526 33.8672 29.6458 33.8672 29.2656C33.8672 29.1667 33.8333 29.0781 33.7656 29C33.6979 28.9167 33.5964 28.875 33.4609 28.875ZM57.7266 33.0859C57.4245 33.7787 57.0703 34.2891 56.6641 34.6172C56.4974 34.7526 56.3125 34.8594 56.1094 34.9375C55.9062 35.0104 55.7396 35.0547 55.6094 35.0703C55.4844 35.0859 55.2943 35.0938 55.0391 35.0938C54.7891 35.0938 54.5599 34.9896 54.3516 34.7813C54.1484 34.5677 54.0469 34.2266 54.0469 33.7578C54.0469 33.2891 54.2031 32.7734 54.5156 32.2109C54.8333 31.6484 55.2422 31.1875 55.7422 30.8281C56.2474 30.4636 56.7083 30.2813 57.125 30.2813C57.5469 30.2813 57.8281 30.362 57.9688 30.5234C58.1146 30.6849 58.1875 30.9792 58.1875 31.4063C58.1875 31.8333 58.0339 32.3932 57.7266 33.0859ZM56.1406 37.9375L55.7734 38.9766C55.487 39.7891 54.7891 40.1953 53.6797 40.1953C53.3828 40.1953 53.1354 40.1328 52.9375 40.0078C52.7448 39.888 52.6484 39.7266 52.6484 39.5234C52.6484 38.8359 53.8125 38.3073 56.1406 37.9375ZM74.5469 25.7656C75.4271 25.7656 75.8672 25.9349 75.8672 26.2734C75.8672 26.4609 75.7214 26.8516 75.4297 27.4453C75.138 28.0391 74.9922 28.375 74.9922 28.4531C74.9922 28.8021 75.2292 29.0703 75.7031 29.2578C75.9531 29.3568 76.2552 29.4063 76.6094 29.4063C77.6562 29.4063 78.4245 29.1667 78.9141 28.6875C79.3464 28.2656 79.5625 27.8125 79.5625 27.3281C79.5625 26.4948 79.1823 25.8464 78.4219 25.3828C77.6667 24.9193 76.5182 24.6875 74.9766 24.6875C73.4349 24.6875 71.875 25.0417 70.2969 25.75C69.5521 26.0886 68.8438 26.5052 68.1719 27C67.5 27.4948 66.9115 28.0339 66.4062 28.6172C65.901 29.2005 65.5 29.8516 65.2031 30.5703C64.9062 31.2891 64.7578 32.0234 64.7578 32.7734C64.7578 34.0495 65.1615 35.0599 65.9688 35.8047C66.3854 36.1901 66.9453 36.487 67.6484 36.6953C68.3568 36.8984 69.1823 37 70.125 37C71.0677 37 71.8958 36.9089 72.6094 36.7266C72.5208 36.9089 72.4297 37.0703 72.3359 37.2109C72.112 37.5287 71.776 37.8177 71.3281 38.0781C70.9375 38.3021 70.7422 38.5234 70.7422 38.7422C70.7422 39.0703 71.5156 39.2344 73.0625 39.2344C73.9062 39.2344 74.6406 39.1146 75.2656 38.875C75.8958 38.6406 76.3646 38.2865 76.6719 37.8125C76.8594 37.5261 77.1615 36.6927 77.5781 35.3125C77.9948 33.9323 78.2943 33.0625 78.4766 32.7031C78.6589 32.3438 78.75 32.0886 78.75 31.9375C78.75 31.7188 78.5833 31.5625 78.25 31.4688C77.9167 31.3698 77.2292 31.3203 76.1875 31.3203C75.151 31.3203 74.2578 31.3984 73.5078 31.5547C72.7578 31.7109 72.3828 31.9349 72.3828 32.2266C72.3828 32.4505 72.6172 32.6042 73.0859 32.6875C73.263 32.7188 73.4245 32.7761 73.5703 32.8594C73.7161 32.9427 73.7891 33.0495 73.7891 33.1797C73.7891 33.3047 73.7031 33.6537 73.5312 34.2266C73.3646 34.7995 73.1771 35.3516 72.9688 35.8828C72.9271 35.888 72.8646 35.8906 72.7812 35.8906C71.8021 35.8906 71.0703 35.5547 70.5859 34.8828C70.1068 34.2109 69.8672 33.2734 69.8672 32.0703C69.8672 30.862 70.2135 29.6849 70.9062 28.5391C71.224 28.0078 71.5833 27.5313 71.9844 27.1094C72.3854 26.6875 72.8177 26.3594 73.2812 26.125C73.75 25.8854 74.1719 25.7656 74.5469 25.7656ZM93.2109 35.0313C93.2109 34.8594 93.1198 34.7734 92.9375 34.7734C92.8646 34.7734 92.7578 34.7969 92.6172 34.8438C90.3203 35.5781 88.5625 35.9453 87.3438 35.9453C87.0365 35.9453 86.7448 35.9219 86.4688 35.875C85.3958 35.6771 84.8177 35.1745 84.7344 34.3672C86.0052 34.2734 87.1328 34.112 88.1172 33.8828C89.0964 33.6537 89.8802 33.3047 90.4688 32.8359C91.0625 32.3672 91.3594 31.763 91.3594 31.0234C91.3594 30.3047 91.0495 29.7396 90.4297 29.3281C89.8151 28.9167 88.8438 28.7109 87.5156 28.7109C86.1875 28.7109 84.9609 28.9297 83.8359 29.3672C82.7109 29.7995 81.8125 30.4271 81.1406 31.25C80.474 32.0677 80.1406 33.0052 80.1406 34.0625C80.1406 36.2292 81.901 37.3125 85.4219 37.3125C87.276 37.3125 88.9401 37.0547 90.4141 36.5391C91.0547 36.3151 91.5573 36.1224 91.9219 35.9609C92.2865 35.7943 92.5911 35.6406 92.8359 35.5C93.0859 35.3542 93.2109 35.1979 93.2109 35.0313ZM86.8906 32.3594C86.3646 32.875 85.6484 33.2578 84.7422 33.5078C84.8151 32.6016 85.0495 31.7813 85.4453 31.0469C85.6328 30.6927 85.862 30.4063 86.1328 30.1875C86.4089 29.9688 86.6719 29.8594 86.9219 29.8594C87.1771 29.8594 87.3672 29.9167 87.4922 30.0313C87.6172 30.1458 87.6797 30.2995 87.6797 30.4922C87.6797 31.2214 87.4167 31.8438 86.8906 32.3594Z"/>
</mask>
<path fill-rule="evenodd" clip-rule="evenodd" d="M9.2 0.70401V24H20.272V19.456H17.552V8.51201L25.328 10.72V24H33.68V10.72L41.456 8.51201V19.456H38.736V24H49.808V0.70401L29.52 6.68801L9.2 0.70401ZM56.2 1.60001V24H89.448V1.60001H56.2ZM81.096 19.456H64.552V6.14401H81.096V19.456ZM17.5938 30.9297C17.5938 30.5859 17.2188 30.4141 16.4688 30.4141C15.9167 30.4141 15.3438 30.5052 14.75 30.6875C14.1615 30.8646 13.6458 31.0703 13.2031 31.3047C13.5312 30.2422 13.8906 29.3438 14.2812 28.6094C14.3802 28.4167 14.4297 28.2682 14.4297 28.1641C14.4297 27.8932 14.0234 27.7578 13.2109 27.7578C11.8464 27.7578 10.8281 27.9193 10.1562 28.2422C9.48438 28.5651 8.93229 29.2031 8.5 30.1563C8.30208 30.599 8.1276 31.0339 7.97656 31.4609C7.82552 31.888 7.65885 32.3568 7.47656 32.8672C7.29948 33.3776 7.10938 33.8412 6.90625 34.2578C6.70312 34.6693 6.48698 34.9531 6.25781 35.1094C6.03385 35.2604 5.68229 35.3359 5.20312 35.3359C5.07292 35.3359 4.96094 35.3724 4.86719 35.4453C4.76823 35.513 4.71094 35.6068 4.69531 35.7266C4.69531 35.9349 4.88021 36.1511 5.25 36.375C5.61979 36.5938 6.11458 36.7787 6.73438 36.9297C7.84375 37.2005 8.98958 37.2448 10.1719 37.0625C10.4219 37.0208 10.6328 36.9583 10.8047 36.875C10.9818 36.7917 11.1536 36.6849 11.3203 36.5547C11.487 36.4245 11.6302 36.2578 11.75 36.0547C11.8698 35.8516 11.9583 35.6511 12.0156 35.4531C12.0781 35.2552 12.3698 34.224 12.8906 32.3594C13.2396 32.3802 13.5938 32.4636 13.9531 32.6094C14.3125 32.7552 14.6068 32.9089 14.8359 33.0703C15.0703 33.2266 15.2995 33.3724 15.5234 33.5078C15.7474 33.638 15.9401 33.7031 16.1016 33.7031C16.263 33.7031 16.4271 33.5807 16.5938 33.3359C16.7604 33.0912 16.9688 32.6849 17.2188 32.1172C17.4688 31.5443 17.5938 31.1484 17.5938 30.9297ZM16.0859 27.1875C17.1745 27.5938 18.0964 28.1276 18.8516 28.7891C19.0234 28.9297 19.1771 29 19.3125 29C19.4531 29 19.5781 28.9844 19.6875 28.9531C19.8594 28.9011 20.0781 28.6511 20.3438 28.2031C20.6094 27.75 20.8385 27.2761 21.0312 26.7813C21.224 26.2865 21.3281 25.9323 21.3438 25.7188C21.3438 25.3177 20.5755 25.0261 19.0391 24.8438C18.2109 24.7396 17.1823 24.6875 15.9531 24.6875C14.0677 24.6875 12.3333 24.9323 10.75 25.4219C10.0573 25.6406 9.4349 25.875 8.88281 26.125C8.33594 26.375 7.91927 26.6172 7.63281 26.8516C7.34635 27.0859 7.20312 27.2865 7.20312 27.4531C7.20312 27.6146 7.28906 27.6953 7.46094 27.6953C7.60156 27.6953 7.89583 27.5964 8.34375 27.3984C8.79167 27.1953 9.48177 27.0078 10.4141 26.8359C11.3464 26.6589 12.1432 26.5703 12.8047 26.5703C13.9089 26.5703 15.0026 26.7761 16.0859 27.1875ZM28.2734 33.0781C27.6172 34.5781 26.7995 35.3281 25.8203 35.3281C25.4818 35.3281 25.2083 35.2109 25 34.9766C24.7917 34.7422 24.6875 34.3906 24.6875 33.9219C24.6875 33.4479 24.8359 32.9167 25.1328 32.3281C25.4297 31.7396 25.8203 31.2526 26.3047 30.8672C26.7943 30.4766 27.2474 30.2813 27.6641 30.2813C28.0859 30.2813 28.3672 30.362 28.5078 30.5234C28.6536 30.6849 28.7266 30.9792 28.7266 31.4063C28.7266 31.8333 28.5755 32.3906 28.2734 33.0781ZM33.4609 28.875L29.8828 28.7109C29.3776 28.7109 29.125 28.8412 29.125 29.1016L29.1328 29.4375C29.1328 29.5052 29.1302 29.5547 29.125 29.5859C28.4688 29.0026 27.5495 28.7109 26.3672 28.7109C25.5964 28.7109 24.875 28.8203 24.2031 29.0391C22.9896 29.4349 22.0208 30.1563 21.2969 31.2031C20.6354 32.1458 20.3047 33.1771 20.3047 34.2969C20.3047 35.3594 20.6589 36.138 21.3672 36.6328C22.0182 37.0859 22.8151 37.3125 23.7578 37.3125C25.1328 37.3125 26.2266 36.9063 27.0391 36.0938C27.2995 36.9063 28.0677 37.3125 29.3438 37.3125C30.1094 37.3125 30.862 37.2396 31.6016 37.0938C32.3464 36.9531 32.9818 36.7761 33.5078 36.5625C33.9725 36.3766 34.3681 36.2013 34.6946 36.0366C34.5388 36.4652 34.4609 36.7212 34.4609 36.8047C34.4609 36.8984 34.4948 36.9792 34.5625 37.0469C34.6354 37.1198 34.7005 37.1563 34.7578 37.1563L38.7812 37.0703C38.9948 37.0703 39.1328 36.9662 39.1953 36.7578C39.263 36.5495 39.5495 35.6849 40.0547 34.1641C40.5651 32.6432 40.9193 31.5339 41.1172 30.8359C41.5339 30.7526 41.9062 30.7109 42.2344 30.7109C42.9583 30.7109 43.3203 30.9427 43.3203 31.4063C43.3203 31.8177 43.0573 32.6146 42.5312 33.7969C42.0104 34.974 41.75 35.7917 41.75 36.25C41.75 36.9583 42.5234 37.3125 44.0703 37.3125C44.7266 37.3125 45.4141 37.237 46.1328 37.0859C46.8568 36.9401 47.4922 36.763 48.0391 36.5547C48.5911 36.3464 49.0521 36.1563 49.4219 35.9844C49.6765 35.8624 49.888 35.7504 50.0562 35.6482C50.2235 35.911 50.4443 36.1299 50.7188 36.3047C51.0469 36.513 51.4036 36.6667 51.7891 36.7656C52.1745 36.8594 52.6484 36.9063 53.2109 36.9063C53.7734 36.9063 54.401 36.7891 55.0938 36.5547C55.7865 36.3203 56.4115 35.9974 56.9688 35.5859C56.8125 36.0495 56.6432 36.5365 56.4609 37.0469C54.8984 37.2604 53.3958 37.5651 51.9531 37.9609C51.1562 38.1797 50.5052 38.4375 50 38.7344C49.5 39.0313 49.25 39.3386 49.25 39.6563C49.25 40.5938 50.4714 41.0625 52.9141 41.0625C54.3151 41.0625 55.5729 40.9375 56.6875 40.6875C57.3281 40.5469 57.8958 40.3646 58.3906 40.1406C58.8854 39.9167 59.3255 39.6146 59.7109 39.2344C60.0964 38.8594 60.362 38.4271 60.5078 37.9375L60.7188 37.2422C62.6667 36.7005 64.0703 36.1068 64.9297 35.4609C65.1172 35.3255 65.2109 35.1875 65.2109 35.0469C65.2109 34.8646 65.0964 34.7734 64.8672 34.7734C64.7578 34.7734 64.6042 34.8203 64.4062 34.9141C63.2188 35.4766 62.099 35.9011 61.0469 36.1875C61.3854 35.1302 61.7422 34.0781 62.1172 33.0313C62.4922 31.9844 62.7552 31.237 62.9062 30.7891C63.0625 30.3412 63.1406 30.0078 63.1406 29.7891C63.1406 29.5651 63.0156 29.3672 62.7656 29.1953C62.5208 29.0234 62.2188 28.9375 61.8594 28.9375C61.5052 28.9375 61.013 28.9948 60.3828 29.1094C59.7578 29.2188 59.2083 29.3464 58.7344 29.4922C58.0781 28.9714 57.151 28.7109 55.9531 28.7109C54.7552 28.7109 53.6823 28.9401 52.7344 29.3984C51.7917 29.8516 51.0443 30.4896 50.4922 31.3125C49.9401 32.1354 49.6641 33.0625 49.6641 34.0938C49.6641 34.387 49.6928 34.6567 49.7502 34.9027C49.7102 34.9181 49.6685 34.935 49.625 34.9531C49.3438 35.0729 48.9062 35.2266 48.3125 35.4141C47.724 35.5964 47.3073 35.6875 47.0625 35.6875C46.6771 35.6875 46.4844 35.4453 46.4844 34.9609C46.4844 34.7162 46.7266 34.0755 47.2109 33.0391C47.6953 32.0026 47.9375 31.1641 47.9375 30.5234C47.9375 29.8984 47.7083 29.4323 47.25 29.125C46.8385 28.849 46.3828 28.7109 45.8828 28.7109C44.7057 28.7109 43.2005 29.0938 41.3672 29.8594C41.4245 29.599 41.4531 29.4115 41.4531 29.2969C41.4531 29.1771 41.4193 29.0781 41.3516 29C41.2839 28.9167 41.1823 28.875 41.0469 28.875L37.3438 28.9609C36.8385 28.9609 36.5859 29.0912 36.5859 29.3516L36.5938 29.6484C36.5938 30.1797 36.4818 30.8516 36.2578 31.6641C36.0391 32.4714 35.7943 33.2136 35.5234 33.8906C35.3853 34.2402 35.2527 34.5784 35.1258 34.9054C35.1003 34.9178 35.074 34.9311 35.0469 34.9453C34.8333 35.0599 34.4219 35.2292 33.8125 35.4531C33.2083 35.6719 32.7917 35.7813 32.5625 35.7813C32.3333 35.7813 32.1771 35.7448 32.0938 35.6719C32.0156 35.599 31.9766 35.4323 31.9766 35.1719C31.9766 34.9063 32.1328 34.3672 32.4453 33.5547C32.763 32.737 33.0781 31.9141 33.3906 31.0859C33.7083 30.2526 33.8672 29.6458 33.8672 29.2656C33.8672 29.1667 33.8333 29.0781 33.7656 29C33.6979 28.9167 33.5964 28.875 33.4609 28.875ZM57.7266 33.0859C57.4245 33.7787 57.0703 34.2891 56.6641 34.6172C56.4974 34.7526 56.3125 34.8594 56.1094 34.9375C55.9062 35.0104 55.7396 35.0547 55.6094 35.0703C55.4844 35.0859 55.2943 35.0938 55.0391 35.0938C54.7891 35.0938 54.5599 34.9896 54.3516 34.7813C54.1484 34.5677 54.0469 34.2266 54.0469 33.7578C54.0469 33.2891 54.2031 32.7734 54.5156 32.2109C54.8333 31.6484 55.2422 31.1875 55.7422 30.8281C56.2474 30.4636 56.7083 30.2813 57.125 30.2813C57.5469 30.2813 57.8281 30.362 57.9688 30.5234C58.1146 30.6849 58.1875 30.9792 58.1875 31.4063C58.1875 31.8333 58.0339 32.3932 57.7266 33.0859ZM56.1406 37.9375L55.7734 38.9766C55.487 39.7891 54.7891 40.1953 53.6797 40.1953C53.3828 40.1953 53.1354 40.1328 52.9375 40.0078C52.7448 39.888 52.6484 39.7266 52.6484 39.5234C52.6484 38.8359 53.8125 38.3073 56.1406 37.9375ZM74.5469 25.7656C75.4271 25.7656 75.8672 25.9349 75.8672 26.2734C75.8672 26.4609 75.7214 26.8516 75.4297 27.4453C75.138 28.0391 74.9922 28.375 74.9922 28.4531C74.9922 28.8021 75.2292 29.0703 75.7031 29.2578C75.9531 29.3568 76.2552 29.4063 76.6094 29.4063C77.6562 29.4063 78.4245 29.1667 78.9141 28.6875C79.3464 28.2656 79.5625 27.8125 79.5625 27.3281C79.5625 26.4948 79.1823 25.8464 78.4219 25.3828C77.6667 24.9193 76.5182 24.6875 74.9766 24.6875C73.4349 24.6875 71.875 25.0417 70.2969 25.75C69.5521 26.0886 68.8438 26.5052 68.1719 27C67.5 27.4948 66.9115 28.0339 66.4062 28.6172C65.901 29.2005 65.5 29.8516 65.2031 30.5703C64.9062 31.2891 64.7578 32.0234 64.7578 32.7734C64.7578 34.0495 65.1615 35.0599 65.9688 35.8047C66.3854 36.1901 66.9453 36.487 67.6484 36.6953C68.3568 36.8984 69.1823 37 70.125 37C71.0677 37 71.8958 36.9089 72.6094 36.7266C72.5208 36.9089 72.4297 37.0703 72.3359 37.2109C72.112 37.5287 71.776 37.8177 71.3281 38.0781C70.9375 38.3021 70.7422 38.5234 70.7422 38.7422C70.7422 39.0703 71.5156 39.2344 73.0625 39.2344C73.9062 39.2344 74.6406 39.1146 75.2656 38.875C75.8958 38.6406 76.3646 38.2865 76.6719 37.8125C76.8594 37.5261 77.1615 36.6927 77.5781 35.3125C77.9948 33.9323 78.2943 33.0625 78.4766 32.7031C78.6589 32.3438 78.75 32.0886 78.75 31.9375C78.75 31.7188 78.5833 31.5625 78.25 31.4688C77.9167 31.3698 77.2292 31.3203 76.1875 31.3203C75.151 31.3203 74.2578 31.3984 73.5078 31.5547C72.7578 31.7109 72.3828 31.9349 72.3828 32.2266C72.3828 32.4505 72.6172 32.6042 73.0859 32.6875C73.263 32.7188 73.4245 32.7761 73.5703 32.8594C73.7161 32.9427 73.7891 33.0495 73.7891 33.1797C73.7891 33.3047 73.7031 33.6537 73.5312 34.2266C73.3646 34.7995 73.1771 35.3516 72.9688 35.8828C72.9271 35.888 72.8646 35.8906 72.7812 35.8906C71.8021 35.8906 71.0703 35.5547 70.5859 34.8828C70.1068 34.2109 69.8672 33.2734 69.8672 32.0703C69.8672 30.862 70.2135 29.6849 70.9062 28.5391C71.224 28.0078 71.5833 27.5313 71.9844 27.1094C72.3854 26.6875 72.8177 26.3594 73.2812 26.125C73.75 25.8854 74.1719 25.7656 74.5469 25.7656ZM93.2109 35.0313C93.2109 34.8594 93.1198 34.7734 92.9375 34.7734C92.8646 34.7734 92.7578 34.7969 92.6172 34.8438C90.3203 35.5781 88.5625 35.9453 87.3438 35.9453C87.0365 35.9453 86.7448 35.9219 86.4688 35.875C85.3958 35.6771 84.8177 35.1745 84.7344 34.3672C86.0052 34.2734 87.1328 34.112 88.1172 33.8828C89.0964 33.6537 89.8802 33.3047 90.4688 32.8359C91.0625 32.3672 91.3594 31.763 91.3594 31.0234C91.3594 30.3047 91.0495 29.7396 90.4297 29.3281C89.8151 28.9167 88.8438 28.7109 87.5156 28.7109C86.1875 28.7109 84.9609 28.9297 83.8359 29.3672C82.7109 29.7995 81.8125 30.4271 81.1406 31.25C80.474 32.0677 80.1406 33.0052 80.1406 34.0625C80.1406 36.2292 81.901 37.3125 85.4219 37.3125C87.276 37.3125 88.9401 37.0547 90.4141 36.5391C91.0547 36.3151 91.5573 36.1224 91.9219 35.9609C92.2865 35.7943 92.5911 35.6406 92.8359 35.5C93.0859 35.3542 93.2109 35.1979 93.2109 35.0313ZM86.8906 32.3594C86.3646 32.875 85.6484 33.2578 84.7422 33.5078C84.8151 32.6016 85.0495 31.7813 85.4453 31.0469C85.6328 30.6927 85.862 30.4063 86.1328 30.1875C86.4089 29.9688 86.6719 29.8594 86.9219 29.8594C87.1771 29.8594 87.3672 29.9167 87.4922 30.0313C87.6172 30.1458 87.6797 30.2995 87.6797 30.4922C87.6797 31.2214 87.4167 31.8438 86.8906 32.3594Z" fill="black"/>
<path d="M9.2 24H8.2V25H9.2V24ZM9.2 0.70401L9.48249 -0.255259L8.2 -0.632939V0.70401H9.2ZM20.272 24V25H21.272V24H20.272ZM20.272 19.456H21.272V18.456H20.272V19.456ZM17.552 19.456H16.552V20.456H17.552V19.456ZM17.552 8.51201L17.8252 7.55004L16.552 7.18853V8.51201H17.552ZM25.328 10.72H26.328V9.96443L25.6012 9.75804L25.328 10.72ZM25.328 24H24.328V25H25.328V24ZM33.68 24V25H34.68V24H33.68ZM33.68 10.72L33.4069 9.75804L32.68 9.96443V10.72H33.68ZM41.456 8.51201H42.456V7.18853L41.1828 7.55004L41.456 8.51201ZM41.456 19.456V20.456H42.456V19.456H41.456ZM38.736 19.456V18.456H37.736V19.456H38.736ZM38.736 24H37.736V25H38.736V24ZM49.808 24V25H50.808V24H49.808ZM49.808 0.70401H50.808V-0.633534L49.5251 -0.255138L49.808 0.70401ZM29.52 6.68801L29.2375 7.64728L29.5202 7.73054L29.8029 7.64716L29.52 6.68801ZM56.2 24H55.2V25H56.2V24ZM56.2 1.60001V0.60001H55.2V1.60001H56.2ZM89.448 24V25H90.448V24H89.448ZM89.448 1.60001H90.448V0.60001H89.448V1.60001ZM64.552 19.456H63.552V20.456H64.552V19.456ZM81.096 19.456V20.456H82.096V19.456H81.096ZM64.552 6.14401V5.14401H63.552V6.14401H64.552ZM81.096 6.14401H82.096V5.14401H81.096V6.14401ZM14.75 30.6875L15.0381 31.6451L15.0435 31.6435L14.75 30.6875ZM13.2031 31.3047L12.2477 31.0096L11.5342 33.3197L13.671 32.1885L13.2031 31.3047ZM14.2812 28.6094L15.1641 29.079L15.1675 29.0726L15.1708 29.0662L14.2812 28.6094ZM8.5 30.1563L7.58928 29.7432L7.58708 29.7481L8.5 30.1563ZM7.47656 32.8672L6.53478 32.5308L6.53181 32.5394L7.47656 32.8672ZM6.90625 34.2578L7.80295 34.7005L7.80513 34.696L6.90625 34.2578ZM6.25781 35.1094L6.81696 35.9385L6.82115 35.9356L6.25781 35.1094ZM4.86719 35.4453L5.43186 36.2706L5.45705 36.2534L5.48113 36.2347L4.86719 35.4453ZM4.69531 35.7266L3.70371 35.5972L3.69531 35.6616V35.7266H4.69531ZM5.25 36.375L4.73194 37.2304L4.74086 37.2357L5.25 36.375ZM6.73438 36.9297L6.97154 35.9582L6.97115 35.9581L6.73438 36.9297ZM10.1719 37.0625L10.3243 38.0509L10.3363 38.0489L10.1719 37.0625ZM10.8047 36.875L10.3789 35.9701L10.3684 35.9752L10.8047 36.875ZM12.0156 35.4531L11.062 35.152L11.0584 35.1635L11.0551 35.1751L12.0156 35.4531ZM12.8906 32.3594L12.9502 31.3612L12.1446 31.3131L11.9275 32.0904L12.8906 32.3594ZM13.9531 32.6094L13.5771 33.536H13.5771L13.9531 32.6094ZM14.8359 33.0703L14.26 33.8878L14.2705 33.8952L14.2812 33.9024L14.8359 33.0703ZM15.5234 33.5078L15.006 34.3636L15.0134 34.368L15.0208 34.3723L15.5234 33.5078ZM17.2188 32.1172L18.1339 32.5202L18.1353 32.5171L17.2188 32.1172ZM18.8516 28.7891L18.1927 29.5413L18.2053 29.5524L18.2183 29.563L18.8516 28.7891ZM16.0859 27.1875L15.7309 28.1224L15.7363 28.1244L16.0859 27.1875ZM19.6875 28.9531L19.9622 29.9147L19.9699 29.9125L19.9775 29.9102L19.6875 28.9531ZM20.3438 28.2031L21.2039 28.7132L21.2064 28.7089L20.3438 28.2031ZM21.3438 25.7188L22.3411 25.7917L22.3438 25.7553V25.7188H21.3438ZM19.0391 24.8438L18.9143 25.836L18.9212 25.8368L19.0391 24.8438ZM10.75 25.4219L10.4546 24.4665L10.4489 24.4683L10.75 25.4219ZM8.88281 26.125L8.4703 25.2141L8.46705 25.2155L8.88281 26.125ZM8.34375 27.3984L8.74793 28.3132L8.75675 28.3092L8.34375 27.3984ZM10.4141 26.8359L10.5954 27.8194L10.6007 27.8184L10.4141 26.8359ZM28.2734 33.0781L27.3579 32.6759L27.3573 32.6773L28.2734 33.0781ZM25.1328 32.3281L24.24 31.8778L25.1328 32.3281ZM26.3047 30.8672L26.9273 31.6497L26.9284 31.6489L26.3047 30.8672ZM28.5078 30.5234L27.7537 31.1802L27.7597 31.187L27.7657 31.1937L28.5078 30.5234ZM29.8828 28.7109L29.9286 27.712L29.9057 27.7109H29.8828V28.7109ZM33.4609 28.875L33.4151 29.874L33.438 29.875H33.4609V28.875ZM29.125 29.1016H28.125V29.1132L28.1253 29.1248L29.125 29.1016ZM29.1328 29.4375H30.1328V29.4259L30.1325 29.4143L29.1328 29.4375ZM29.125 29.5859L28.4606 30.3334L29.8137 31.5361L30.1114 29.7504L29.125 29.5859ZM24.2031 29.0391L23.8935 28.0882L23.893 28.0884L24.2031 29.0391ZM21.2969 31.2031L22.1155 31.7775L22.1194 31.7719L21.2969 31.2031ZM21.3672 36.6328L20.7945 37.4526L20.7959 37.4536L21.3672 36.6328ZM27.0391 36.0938L27.9913 35.7885L27.491 34.2276L26.332 35.3867L27.0391 36.0938ZM31.6016 37.0938L31.416 36.1111L31.4081 36.1127L31.6016 37.0938ZM33.5078 36.5625L33.1364 35.634L33.1317 35.6359L33.5078 36.5625ZM34.6946 36.0366L35.6345 36.3783L36.4964 34.0078L34.2443 35.1438L34.6946 36.0366ZM34.5625 37.0469L35.2696 36.3398L35.2696 36.3398L34.5625 37.0469ZM34.7578 37.1563V38.1563H34.7685L34.7792 38.156L34.7578 37.1563ZM38.7812 37.0703V36.0703H38.7706L38.7599 36.0706L38.7812 37.0703ZM39.1953 36.7578L38.2443 36.4487L38.2408 36.4596L38.2375 36.4705L39.1953 36.7578ZM40.0547 34.1641L39.1067 33.8459L39.1057 33.8488L40.0547 34.1641ZM41.1172 30.8359L40.9211 29.8554L40.3218 29.9752L40.1551 30.5631L41.1172 30.8359ZM42.5312 33.7969L41.6176 33.3904L41.6168 33.3923L42.5312 33.7969ZM46.1328 37.0859L45.9353 36.1056L45.9272 36.1073L46.1328 37.0859ZM48.0391 36.5547L47.686 35.6191L47.6831 35.6202L48.0391 36.5547ZM49.4219 35.9844L49.8434 36.8913L49.8538 36.8863L49.4219 35.9844ZM50.0562 35.6482L50.8998 35.1112L50.3739 34.2851L49.5369 34.7935L50.0562 35.6482ZM50.7188 36.3047L50.1815 37.1481L50.1827 37.1489L50.7188 36.3047ZM51.7891 36.7656L51.5404 37.7343L51.5527 37.7373L51.7891 36.7656ZM56.9688 35.5859L57.9164 35.9054L58.9315 32.8938L56.3748 34.7815L56.9688 35.5859ZM56.4609 37.0469L56.5963 38.0377L57.1983 37.9554L57.4027 37.3832L56.4609 37.0469ZM51.9531 37.9609L51.6885 36.9966L51.6884 36.9966L51.9531 37.9609ZM50 38.7344L49.4934 37.8722L49.4895 37.8745L50 38.7344ZM56.6875 40.6875L56.4731 39.7108L56.4686 39.7118L56.6875 40.6875ZM59.7109 39.2344L59.0136 38.5176L59.0087 38.5225L59.7109 39.2344ZM60.5078 37.9375L59.5509 37.6472L59.5494 37.652L60.5078 37.9375ZM60.7188 37.2422L60.4508 36.2788L59.9214 36.426L59.7618 36.9519L60.7188 37.2422ZM64.9297 35.4609L64.3442 34.6503L64.3365 34.6558L64.3289 34.6615L64.9297 35.4609ZM64.4062 34.9141L63.9782 34.0103V34.0103L64.4062 34.9141ZM61.0469 36.1875L60.0945 35.8826L59.533 37.6361L61.3096 37.1524L61.0469 36.1875ZM62.9062 30.7891L61.962 30.4597L61.9587 30.4695L62.9062 30.7891ZM62.7656 29.1953L62.191 30.0138L62.1991 30.0194L62.7656 29.1953ZM60.3828 29.1094L60.5552 30.0944L60.5617 30.0933L60.3828 29.1094ZM58.7344 29.4922L58.1127 30.2755L58.5252 30.6028L59.0285 30.448L58.7344 29.4922ZM52.7344 29.3984L53.1676 30.2997L53.1697 30.2987L52.7344 29.3984ZM49.7502 34.9027L50.1099 35.8358L50.9219 35.5228L50.724 34.6754L49.7502 34.9027ZM49.625 34.9531L49.2392 34.0305L49.2331 34.0331L49.625 34.9531ZM48.3125 35.4141L48.6084 36.3693L48.6136 36.3677L48.3125 35.4141ZM47.2109 33.0391L48.1169 33.4625V33.4625L47.2109 33.0391ZM47.25 29.125L46.6929 29.9554L46.6931 29.9556L47.25 29.125ZM41.3672 29.8594L40.3905 29.6445L39.9771 31.5236L41.7525 30.7822L41.3672 29.8594ZM41.3516 29L40.5754 29.6306L40.5855 29.6429L40.5959 29.6549L41.3516 29ZM41.0469 28.875V27.875H41.0353L41.0237 27.8753L41.0469 28.875ZM37.3438 28.9609V29.9609H37.3554L37.367 29.9607L37.3438 28.9609ZM36.5859 29.3516H35.5859V29.3647L35.5863 29.3779L36.5859 29.3516ZM36.5938 29.6484H37.5938V29.6353L37.5934 29.6221L36.5938 29.6484ZM36.2578 31.6641L35.2938 31.3983L35.2926 31.4025L36.2578 31.6641ZM35.5234 33.8906L34.595 33.5192L34.5935 33.523L35.5234 33.8906ZM35.1258 34.9054L35.5641 35.8042L35.9163 35.6325L36.0581 35.2672L35.1258 34.9054ZM35.0469 34.9453L34.5828 34.0595L34.5741 34.0642L35.0469 34.9453ZM33.8125 35.4531L34.1529 36.3934L34.1575 36.3918L33.8125 35.4531ZM32.0938 35.6719L31.4114 36.4029L31.4232 36.4139L31.4352 36.4245L32.0938 35.6719ZM32.4453 33.5547L31.5132 33.1925L31.512 33.1957L32.4453 33.5547ZM33.3906 31.0859L32.4562 30.7297L32.455 30.7329L33.3906 31.0859ZM33.7656 29L32.9895 29.6306L32.9995 29.6429L33.0099 29.6549L33.7656 29ZM56.6641 34.6172L56.0357 33.8393L56.0335 33.8411L56.6641 34.6172ZM57.7266 33.0859L56.8125 32.6804L56.8099 32.6862L57.7266 33.0859ZM56.1094 34.9375L56.4472 35.8787L56.4578 35.8749L56.4684 35.8709L56.1094 34.9375ZM55.6094 35.0703L55.4902 34.0774L55.4853 34.078L55.6094 35.0703ZM54.3516 34.7813L53.627 35.4705L53.6356 35.4795L53.6445 35.4884L54.3516 34.7813ZM54.5156 32.2109L53.6449 31.7191L53.6415 31.7253L54.5156 32.2109ZM55.7422 30.8281L56.3258 31.6402L56.3274 31.639L55.7422 30.8281ZM57.9688 30.5234L57.2147 31.1802L57.2206 31.187L57.2266 31.1937L57.9688 30.5234ZM55.7734 38.9766L54.8306 38.6434L54.8303 38.6441L55.7734 38.9766ZM56.1406 37.9375L57.0835 38.2707L57.6434 36.6863L55.9838 36.9499L56.1406 37.9375ZM52.9375 40.0078L53.4715 39.1623L53.4654 39.1585L52.9375 40.0078ZM75.7031 29.2578L76.0712 28.328L76.071 28.3279L75.7031 29.2578ZM78.9141 28.6875L78.2156 27.9718L78.2146 27.9728L78.9141 28.6875ZM78.4219 25.3828L77.8988 26.2351L77.9014 26.2367L78.4219 25.3828ZM70.2969 25.75L69.8874 24.8377L69.8831 24.8396L70.2969 25.75ZM65.9688 35.8047L66.6478 35.0706L66.6468 35.0697L65.9688 35.8047ZM67.6484 36.6953L67.3643 37.6542L67.3728 37.6566L67.6484 36.6953ZM72.6094 36.7266L73.5089 37.1635L74.4509 35.224L72.3618 35.7577L72.6094 36.7266ZM72.3359 37.2109L73.1533 37.7871L73.1608 37.7765L73.168 37.7656L72.3359 37.2109ZM71.3281 38.0781L71.8255 38.9457L71.8307 38.9426L71.3281 38.0781ZM75.2656 38.875L74.917 37.9377L74.9077 37.9413L75.2656 38.875ZM76.6719 37.8125L75.8352 37.2648L75.8328 37.2685L76.6719 37.8125ZM78.25 31.4688L77.9654 32.4274L77.9723 32.4295L77.9793 32.4314L78.25 31.4688ZM73.0859 32.6875L72.9109 33.6721L72.9122 33.6723L73.0859 32.6875ZM73.5312 34.2266L72.5734 33.9392L72.5711 33.9473L73.5312 34.2266ZM72.9688 35.8828L73.0928 36.8751L73.6827 36.8014L73.8997 36.2479L72.9688 35.8828ZM70.5859 34.8828L69.7718 35.4635L69.7748 35.4676L70.5859 34.8828ZM70.9062 28.5391L71.762 29.0564L71.7645 29.0523L70.9062 28.5391ZM73.2812 26.125L73.7325 27.0174L73.7364 27.0154L73.2812 26.125ZM92.6172 34.8438L92.9218 35.7963L92.9334 35.7924L92.6172 34.8438ZM86.4688 35.875L86.2873 36.8584L86.2943 36.8597L86.3013 36.8609L86.4688 35.875ZM84.7344 34.3672L84.6608 33.3699L83.6339 33.4457L83.7397 34.4699L84.7344 34.3672ZM88.1172 33.8828L88.3439 34.8568L88.3451 34.8565L88.1172 33.8828ZM90.4688 32.8359L89.8491 32.0511L89.8457 32.0537L90.4688 32.8359ZM90.4297 29.3281L89.8734 30.1591L89.8766 30.1613L90.4297 29.3281ZM83.8359 29.3672L84.1946 30.3007L84.1984 30.2992L83.8359 29.3672ZM81.1406 31.25L80.366 30.6176L80.3656 30.6181L81.1406 31.25ZM90.4141 36.5391L90.0841 35.5951L90.0839 35.5952L90.4141 36.5391ZM91.9219 35.9609L92.3268 36.8754L92.3376 36.8704L91.9219 35.9609ZM92.8359 35.5L93.3341 36.3671L93.3398 36.3638L92.8359 35.5ZM84.7422 33.5078L83.7454 33.4276L83.6308 34.8518L85.0081 34.4718L84.7422 33.5078ZM85.4453 31.0469L86.3256 31.5214L86.3291 31.5148L85.4453 31.0469ZM86.1328 30.1875L85.5117 29.4037L85.5045 29.4096L86.1328 30.1875ZM10.2 24V0.70401H8.2V24H10.2ZM20.272 23H9.2V25H20.272V23ZM19.272 19.456V24H21.272V19.456H19.272ZM17.552 20.456H20.272V18.456H17.552V20.456ZM16.552 8.51201V19.456H18.552V8.51201H16.552ZM25.6012 9.75804L17.8252 7.55004L17.2788 9.47398L25.0548 11.682L25.6012 9.75804ZM26.328 24V10.72H24.328V24H26.328ZM33.68 23H25.328V25H33.68V23ZM32.68 10.72V24H34.68V10.72H32.68ZM41.1828 7.55004L33.4069 9.75804L33.9532 11.682L41.7292 9.47398L41.1828 7.55004ZM42.456 19.456V8.51201H40.456V19.456H42.456ZM38.736 20.456H41.456V18.456H38.736V20.456ZM39.736 24V19.456H37.736V24H39.736ZM49.808 23H38.736V25H49.808V23ZM48.808 0.70401V24H50.808V0.70401H48.808ZM29.8029 7.64716L50.0909 1.66316L49.5251 -0.255138L29.2371 5.72886L29.8029 7.64716ZM8.91751 1.66328L29.2375 7.64728L29.8025 5.72874L9.48249 -0.255259L8.91751 1.66328ZM57.2 24V1.60001H55.2V24H57.2ZM89.448 23H56.2V25H89.448V23ZM88.448 1.60001V24H90.448V1.60001H88.448ZM56.2 2.60001H89.448V0.60001H56.2V2.60001ZM64.552 20.456H81.096V18.456H64.552V20.456ZM63.552 6.14401V19.456H65.552V6.14401H63.552ZM81.096 5.14401H64.552V7.14401H81.096V5.14401ZM82.096 19.456V6.14401H80.096V19.456H82.096ZM16.4688 31.4141C16.6206 31.4141 16.7321 31.4229 16.8099 31.4348C16.8908 31.4472 16.9117 31.4593 16.8958 31.452C16.8782 31.444 16.7943 31.4017 16.7147 31.2923C16.6274 31.1722 16.5938 31.0376 16.5938 30.9297H18.5938C18.5938 30.6499 18.5133 30.3649 18.3322 30.1159C18.1589 29.8776 17.9343 29.7279 17.7292 29.6339C17.3439 29.4573 16.8887 29.4141 16.4688 29.4141V31.4141ZM15.0435 31.6435C15.5539 31.4868 16.0277 31.4141 16.4688 31.4141V29.4141C15.8056 29.4141 15.1336 29.5237 14.4565 29.7316L15.0435 31.6435ZM13.671 32.1885C14.0452 31.9904 14.4983 31.8075 15.0381 31.6451L14.4619 29.7299C13.8246 29.9217 13.2465 30.1502 12.7352 30.4209L13.671 32.1885ZM13.3984 28.1398C12.9701 28.9449 12.5886 29.9056 12.2477 31.0096L14.1586 31.5998C14.4739 30.5788 14.8111 29.7426 15.1641 29.079L13.3984 28.1398ZM13.4297 28.1641C13.4297 28.1377 13.4312 28.1156 13.4331 28.0985C13.4349 28.0813 13.4372 28.0677 13.4391 28.0583C13.4426 28.0401 13.4455 28.0325 13.4439 28.0373C13.4424 28.0417 13.4381 28.0537 13.4292 28.0742C13.4204 28.0944 13.4082 28.1204 13.3917 28.1526L15.1708 29.0662C15.2802 28.8532 15.4297 28.5227 15.4297 28.1641H13.4297ZM13.2109 28.7578C13.3882 28.7578 13.5276 28.7653 13.6337 28.7771C13.7433 28.7893 13.7958 28.8038 13.8088 28.8081C13.8294 28.8149 13.746 28.793 13.6464 28.6934C13.5921 28.6391 13.5343 28.5627 13.4915 28.4628C13.4482 28.3617 13.4297 28.2587 13.4297 28.1641H15.4297C15.4297 27.3644 14.775 27.022 14.4412 26.9107C14.0818 26.7909 13.6464 26.7578 13.2109 26.7578V28.7578ZM10.5894 29.1435C11.056 28.9193 11.8917 28.7578 13.2109 28.7578V26.7578C11.801 26.7578 10.6003 26.9193 9.72307 27.3409L10.5894 29.1435ZM9.41071 30.5693C9.78476 29.7446 10.2005 29.3304 10.5894 29.1435L9.72307 27.3409C8.76828 27.7998 8.07983 28.6617 7.58929 29.7432L9.41071 30.5693ZM8.91934 31.7944C9.06084 31.3943 9.2252 30.9843 9.41292 30.5644L7.58708 29.7481C7.37897 30.2136 7.19437 30.6735 7.03378 31.1275L8.91934 31.7944ZM8.4183 33.2035C8.60088 32.6923 8.7679 32.2226 8.91934 31.7944L7.03378 31.1275C6.88315 31.5535 6.71683 32.0212 6.53482 32.5309L8.4183 33.2035ZM7.80513 34.696C8.02831 34.2382 8.23324 33.7371 8.42132 33.195L6.53181 32.5394C6.36572 33.0182 6.19044 33.4441 6.00737 33.8196L7.80513 34.696ZM6.82115 35.9356C7.25716 35.6383 7.56787 35.1766 7.80294 34.7005L6.00956 33.8152C5.83838 34.1619 5.7168 34.2679 5.69448 34.2832L6.82115 35.9356ZM5.20312 36.3359C5.74657 36.3359 6.34326 36.2579 6.81696 35.9385L5.69867 34.2803C5.72121 34.2651 5.70615 34.2823 5.61615 34.3016C5.52782 34.3206 5.39386 34.3359 5.20312 34.3359V36.3359ZM5.48113 36.2347C5.43746 36.2686 5.38607 36.2963 5.33107 36.3142C5.27712 36.3317 5.23213 36.3359 5.20312 36.3359V34.3359C4.87328 34.3359 4.53967 34.4332 4.25324 34.656L5.48113 36.2347ZM5.68691 35.8559C5.67842 35.921 5.6547 36.0037 5.60328 36.0879C5.55176 36.1722 5.48821 36.2321 5.43186 36.2706L4.30251 34.62C3.96668 34.8498 3.75582 35.1977 3.70371 35.5972L5.68691 35.8559ZM5.76803 35.5196C5.70403 35.4809 5.659 35.449 5.62887 35.4251C5.59819 35.4008 5.58972 35.39 5.59389 35.3949C5.59971 35.4017 5.69531 35.5177 5.69531 35.7266H3.69531C3.69531 36.1438 3.88337 36.472 4.07408 36.695C4.2618 36.9144 4.49825 37.0888 4.73197 37.2304L5.76803 35.5196ZM6.97115 35.9581C6.40544 35.8203 6.01375 35.6649 5.75914 35.5143L4.74086 37.2357C5.22584 37.5226 5.82373 37.737 6.4976 37.9013L6.97115 35.9581ZM10.0195 36.0742C8.96062 36.2375 7.9474 36.1965 6.97154 35.9582L6.49721 37.9012C7.7401 38.2046 9.01854 38.2522 10.3243 38.0508L10.0195 36.0742ZM10.3684 35.9752C10.3054 36.0058 10.192 36.0454 10.0075 36.0761L10.3363 38.0489C10.6518 37.9963 10.9602 37.9109 11.241 37.7748L10.3684 35.9752ZM10.7047 35.7667C10.592 35.8547 10.4834 35.921 10.3789 35.9702L11.2305 37.7798C11.4802 37.6623 11.7152 37.5151 11.936 37.3427L10.7047 35.7667ZM10.8886 35.5467C10.8252 35.6543 10.7619 35.722 10.7047 35.7667L11.936 37.3427C12.2121 37.127 12.4352 36.8613 12.6114 36.5627L10.8886 35.5467ZM11.0551 35.1751C11.0241 35.2819 10.9719 35.4056 10.8886 35.5467L12.6114 36.5627C12.7677 36.2976 12.8925 36.0202 12.9762 35.7312L11.0551 35.1751ZM11.9275 32.0904C11.4029 33.9685 11.1179 34.975 11.062 35.152L12.9692 35.7543C13.0383 35.5355 13.3367 34.4794 13.8538 32.6284L11.9275 32.0904ZM14.3291 31.6828C13.8798 31.5005 13.4191 31.3892 12.9502 31.3612L12.831 33.3576C13.0601 33.3713 13.3077 33.4267 13.5771 33.536L14.3291 31.6828ZM15.4119 32.2528C15.1018 32.0344 14.7343 31.8472 14.3291 31.6828L13.5771 33.536C13.8907 33.6632 14.1117 33.7833 14.26 33.8878L15.4119 32.2528ZM16.0409 32.6521C15.8304 32.5248 15.6137 32.387 15.3906 32.2383L14.2812 33.9024C14.5269 34.0662 14.7686 34.22 15.006 34.3636L16.0409 32.6521ZM16.1016 32.7031C16.1537 32.7031 16.1748 32.7133 16.156 32.7069C16.1376 32.7007 16.095 32.6834 16.0261 32.6433L15.0208 34.3723C15.3142 34.5429 15.6873 34.7031 16.1016 34.7031V32.7031ZM15.7671 32.7732C15.7209 32.8411 15.7107 32.8374 15.7477 32.8098C15.7917 32.777 15.915 32.7031 16.1016 32.7031V34.7031C16.792 34.7031 17.2171 34.1972 17.4204 33.8987L15.7671 32.7732ZM16.3036 31.7142C16.0576 32.2728 15.8794 32.6084 15.7671 32.7732L17.4204 33.8987C17.6415 33.574 17.8799 33.097 18.1339 32.5202L16.3036 31.7142ZM16.5938 30.9297C16.5938 30.8825 16.6005 30.9181 16.5464 31.0895C16.4984 31.2416 16.4194 31.4487 16.3022 31.7173L18.1353 32.5171C18.2681 32.2128 18.3766 31.9355 18.4536 31.6918C18.5245 31.4673 18.5938 31.1956 18.5938 30.9297H16.5938ZM19.5104 28.0368C18.6511 27.2841 17.62 26.6926 16.4356 26.2506L15.7363 28.1244C16.729 28.4949 17.5416 28.9711 18.1927 29.5413L19.5104 28.0368ZM19.3125 28C19.4194 28 19.4895 28.0278 19.5118 28.038C19.5328 28.0476 19.5239 28.0471 19.4848 28.0151L18.2183 29.563C18.463 29.7632 18.839 30 19.3125 30V28ZM19.4128 27.9916C19.4109 27.9922 19.3812 28 19.3125 28V30C19.5251 30 19.7454 29.9766 19.9622 29.9147L19.4128 27.9916ZM19.4836 27.6931C19.3666 27.8904 19.281 28.0074 19.2279 28.0681C19.2022 28.0974 19.1971 28.0985 19.2134 28.0859C19.2273 28.0752 19.2893 28.0289 19.3975 27.9961L19.9775 29.9102C20.3386 29.8007 20.5897 29.5489 20.733 29.3851C20.8987 29.1958 21.0553 28.9638 21.2039 28.7132L19.4836 27.6931ZM20.0994 26.4183C19.9257 26.8643 19.7196 27.2905 19.4811 27.6974L21.2064 28.7089C21.4992 28.2095 21.7514 27.6878 21.9631 27.1442L20.0994 26.4183ZM20.3464 25.6458C20.3467 25.6418 20.3457 25.6576 20.337 25.6988C20.3286 25.7386 20.3151 25.7925 20.2945 25.8624C20.2531 26.0032 20.1895 26.1871 20.0994 26.4183L21.9631 27.1442C22.1541 26.6537 22.3132 26.1722 22.3411 25.7917L20.3464 25.6458ZM18.9212 25.8368C19.6663 25.9252 20.1449 26.0325 20.4126 26.1341C20.549 26.1859 20.5642 26.2119 20.53 26.1812C20.4805 26.1365 20.3438 25.9785 20.3438 25.7188H22.3438C22.3438 25.2585 22.111 24.9137 21.8694 24.6958C21.6432 24.4919 21.3703 24.3584 21.1225 24.2643C20.622 24.0743 19.9483 23.9446 19.1569 23.8507L18.9212 25.8368ZM15.9531 25.6875C17.1581 25.6875 18.1419 25.7388 18.9143 25.8359L19.1639 23.8516C18.28 23.7404 17.2065 23.6875 15.9531 23.6875V25.6875ZM11.0454 26.3773C12.5209 25.921 14.1543 25.6875 15.9531 25.6875V23.6875C13.9811 23.6875 12.1457 23.9436 10.4546 24.4665L11.0454 26.3773ZM9.29532 27.036C9.80489 26.8052 10.3892 26.5845 11.0511 26.3755L10.4489 24.4683C9.7254 24.6968 9.0649 24.9448 8.4703 25.2141L9.29532 27.036ZM8.26605 27.6255C8.45796 27.4685 8.78766 27.268 9.29857 27.0345L8.46705 25.2155C7.88422 25.482 7.38059 25.7659 6.99957 26.0776L8.26605 27.6255ZM8.20312 27.4531C8.20312 27.5562 8.18082 27.636 8.16161 27.6852C8.14299 27.7329 8.1252 27.7577 8.12428 27.759C8.12295 27.7609 8.13129 27.749 8.15618 27.7238C8.18061 27.6991 8.21625 27.6663 8.26605 27.6255L6.99957 26.0776C6.81852 26.2257 6.6386 26.398 6.49681 26.5965C6.35916 26.7892 6.20312 27.0833 6.20312 27.4531H8.20312ZM7.46094 26.6953C7.51412 26.6953 7.74007 26.7066 7.95225 26.9059C8.17619 27.1163 8.20312 27.3632 8.20312 27.4531H6.20312C6.20312 27.7046 6.27303 28.0725 6.5829 28.3636C6.88103 28.6437 7.23588 28.6953 7.46094 28.6953V26.6953ZM7.93959 26.4838C7.72963 26.5765 7.575 26.6374 7.46837 26.6733C7.4153 26.6911 7.38511 26.699 7.37334 26.7017C7.35472 26.7059 7.39117 26.6953 7.46094 26.6953V28.6953C7.70708 28.6953 7.94956 28.6215 8.10585 28.5689C8.29349 28.5058 8.50995 28.4183 8.74791 28.3131L7.93959 26.4838ZM10.2328 25.8525C9.27983 26.0282 8.49253 26.233 7.93074 26.4877L8.75675 28.3092C9.0908 28.1577 9.68371 27.9874 10.5954 27.8194L10.2328 25.8525ZM12.8047 25.5703C12.0601 25.5703 11.1972 25.6693 10.2275 25.8535L10.6007 27.8184C11.4955 27.6484 12.2263 27.5703 12.8047 27.5703V25.5703ZM16.441 26.2527C15.2499 25.8003 14.0361 25.5703 12.8047 25.5703V27.5703C13.7816 27.5703 14.7553 27.7518 15.7309 28.1224L16.441 26.2527ZM25.8203 36.3281C27.4231 36.3281 28.4907 35.0764 29.1896 33.479L27.3573 32.6773C26.7437 34.0799 26.1759 34.3281 25.8203 34.3281V36.3281ZM24.2526 35.6409C24.6671 36.1072 25.2217 36.3281 25.8203 36.3281V34.3281C25.7679 34.3281 25.7515 34.3195 25.7552 34.3211C25.7555 34.3212 25.7561 34.3215 25.7568 34.3219C25.7575 34.3223 25.7579 34.3226 25.7579 34.3226C25.7579 34.3226 25.7571 34.322 25.7554 34.3205C25.7538 34.319 25.7511 34.3163 25.7474 34.3122L24.2526 35.6409ZM23.6875 33.9219C23.6875 34.5177 23.8173 35.1513 24.2526 35.6409L25.7474 34.3122C25.766 34.3331 25.6875 34.2636 25.6875 33.9219H23.6875ZM24.24 31.8778C23.8986 32.5545 23.6875 33.2426 23.6875 33.9219H25.6875C25.6875 33.6533 25.7733 33.2788 26.0257 32.7785L24.24 31.8778ZM25.682 30.0847C25.0774 30.5658 24.5976 31.1688 24.24 31.8778L26.0257 32.7785C26.2618 32.3104 26.5632 31.9395 26.9273 31.6497L25.682 30.0847ZM27.6641 29.2813C26.9316 29.2813 26.2624 29.6216 25.681 30.0855L26.9284 31.6489C27.3261 31.3315 27.5632 31.2813 27.6641 31.2813V29.2813ZM29.2619 29.8667C28.8128 29.3511 28.1246 29.2813 27.6641 29.2813V31.2813C27.7384 31.2813 27.7964 31.2849 27.84 31.2899C27.8841 31.2949 27.9078 31.3008 27.9155 31.303C27.9366 31.309 27.8486 31.2892 27.7537 31.1802L29.2619 29.8667ZM29.7266 31.4063C29.7266 30.9375 29.6613 30.3087 29.2499 29.8532L27.7657 31.1937C27.6934 31.1136 27.6896 31.059 27.7012 31.1058C27.7121 31.1495 27.7266 31.2436 27.7266 31.4063H29.7266ZM29.189 33.4804C29.5108 32.7479 29.7266 32.0396 29.7266 31.4063H27.7266C27.7266 31.6271 27.6402 32.0334 27.3579 32.6759L29.189 33.4804ZM29.837 29.7099L33.4151 29.874L33.5067 27.8761L29.9286 27.712L29.837 29.7099ZM30.125 29.1016C30.125 29.2053 30.0973 29.3418 30.0121 29.4737C29.9299 29.6008 29.8304 29.6677 29.7726 29.6975C29.7194 29.7249 29.6935 29.7256 29.7206 29.7209C29.7452 29.7167 29.7967 29.7109 29.8828 29.7109V27.7109C29.5768 27.7109 29.1953 27.745 28.8563 27.9197C28.6722 28.0146 28.478 28.1629 28.3326 28.3877C28.1842 28.6172 28.125 28.8676 28.125 29.1016H30.125ZM30.1325 29.4143L30.1247 29.0783L28.1253 29.1248L28.1331 29.4608L30.1325 29.4143ZM30.1114 29.7504C30.1311 29.6324 30.1328 29.5129 30.1328 29.4375H28.1328C28.1328 29.4481 28.1327 29.4564 28.1326 29.4627C28.1324 29.469 28.1323 29.4722 28.1322 29.4728C28.1322 29.4737 28.1324 29.47 28.1331 29.4628C28.1334 29.459 28.134 29.4537 28.1348 29.4471C28.1357 29.4405 28.1369 29.4319 28.1386 29.4215L30.1114 29.7504ZM26.3672 29.7109C27.3904 29.7109 28.0428 29.9619 28.4606 30.3334L29.7894 28.8385C28.8947 28.0433 27.7085 27.7109 26.3672 27.7109V29.7109ZM24.5127 29.9899C25.0759 29.8066 25.692 29.7109 26.3672 29.7109V27.7109C25.5007 27.7109 24.6741 27.8341 23.8935 28.0882L24.5127 29.9899ZM22.1194 31.7719C22.7185 30.9055 23.507 30.318 24.5132 29.9898L23.893 28.0884C22.4722 28.5518 21.3232 29.407 20.4744 30.6344L22.1194 31.7719ZM21.3047 34.2969C21.3047 33.3888 21.5685 32.5571 22.1155 31.7775L20.4783 30.6288C19.7023 31.7346 19.3047 32.9654 19.3047 34.2969H21.3047ZM21.9398 35.813C21.562 35.5491 21.3047 35.1175 21.3047 34.2969H19.3047C19.3047 35.6013 19.7557 36.727 20.7945 37.4526L21.9398 35.813ZM23.7578 36.3125C22.98 36.3125 22.3922 36.1279 21.9384 35.8121L20.7959 37.4536C21.6443 38.044 22.6502 38.3125 23.7578 38.3125V36.3125ZM26.332 35.3867C25.7431 35.9755 24.9235 36.3125 23.7578 36.3125V38.3125C25.3422 38.3125 26.71 37.837 27.7462 36.8009L26.332 35.3867ZM29.3438 36.3125C28.7979 36.3125 28.4664 36.2234 28.278 36.1238C28.1201 36.0403 28.0401 35.9408 27.9913 35.7885L26.0868 36.399C26.2984 37.0592 26.7327 37.5691 27.3431 37.8918C27.9229 38.1985 28.6135 38.3125 29.3438 38.3125V36.3125ZM31.4081 36.1127C30.7332 36.2457 30.0454 36.3125 29.3438 36.3125V38.3125C30.1733 38.3125 30.9907 38.2335 31.795 38.0749L31.4081 36.1127ZM33.1317 35.6359C32.6837 35.8178 32.1158 35.979 31.416 36.1111L31.7871 38.0764C32.5769 37.9273 33.2799 37.7343 33.8839 37.4891L33.1317 35.6359ZM34.2443 35.1438C33.951 35.2917 33.5833 35.4553 33.1364 35.634L33.8792 37.491C34.3617 37.298 34.7853 37.1109 35.145 36.9295L34.2443 35.1438ZM35.4609 36.8047C35.4609 36.8644 35.4547 36.9064 35.453 36.9173C35.4507 36.9323 35.449 36.9386 35.4502 36.9333C35.4528 36.9222 35.4602 36.8933 35.4761 36.8411C35.5075 36.7379 35.559 36.5857 35.6345 36.3783L33.7548 35.6949C33.6744 35.9161 33.6091 36.1062 33.5627 36.2589C33.5396 36.3348 33.5178 36.4124 33.5009 36.4861C33.4883 36.5407 33.4609 36.6645 33.4609 36.8047H35.4609ZM35.2696 36.3398C35.3189 36.3891 35.3707 36.4587 35.4085 36.5488C35.4465 36.6394 35.4609 36.7283 35.4609 36.8047H33.4609C33.4609 37.1699 33.6046 37.5032 33.8554 37.754L35.2696 36.3398ZM34.7578 36.1563C34.9444 36.1563 35.0818 36.2156 35.1546 36.2564C35.2261 36.2964 35.264 36.3341 35.2696 36.3398L33.8554 37.754C33.9789 37.8775 34.2899 38.1563 34.7578 38.1563V36.1563ZM38.7599 36.0706L34.7365 36.1565L34.7792 38.156L38.8026 38.0701L38.7599 36.0706ZM38.2375 36.4705C38.2514 36.424 38.3023 36.2999 38.4425 36.194C38.5845 36.0869 38.7227 36.0703 38.7812 36.0703V38.0703C39.0533 38.0703 39.3674 38.0017 39.6473 37.7904C39.9256 37.5804 40.0767 37.3 40.1531 37.0452L38.2375 36.4705ZM39.1057 33.8488C38.6012 35.3674 38.3133 36.2364 38.2443 36.4487L40.1463 37.0669C40.2128 36.8626 40.4977 36.0024 41.0037 34.4793L39.1057 33.8488ZM40.1551 30.5631C39.9642 31.2365 39.6166 32.3266 39.1067 33.8459L41.0027 34.4823C41.5137 32.9599 41.8744 31.8312 42.0793 31.1088L40.1551 30.5631ZM42.2344 29.7109C41.8244 29.7109 41.3845 29.7627 40.9211 29.8554L41.3133 31.8165C41.6832 31.7426 41.9881 31.7109 42.2344 31.7109V29.7109ZM44.3203 31.4063C44.3203 30.8656 44.0821 30.3589 43.5881 30.0426C43.1701 29.775 42.6709 29.7109 42.2344 29.7109V31.7109C42.3651 31.7109 42.4507 31.7217 42.5007 31.7324C42.5516 31.7432 42.5449 31.7495 42.5096 31.7269C42.4675 31.7 42.4085 31.6466 42.3654 31.5638C42.324 31.4843 42.3203 31.4219 42.3203 31.4063H44.3203ZM43.4449 34.2034C43.715 33.5962 43.9267 33.0681 44.0727 32.6259C44.2103 32.2088 44.3203 31.78 44.3203 31.4063H42.3203C42.3203 31.4059 42.3202 31.4195 42.3163 31.4502C42.3124 31.4803 42.3054 31.5213 42.2939 31.5744C42.2705 31.6819 42.2318 31.8221 42.1734 31.9991C42.0563 32.3538 41.8735 32.8153 41.6176 33.3904L43.4449 34.2034ZM42.75 36.25C42.75 36.1778 42.777 35.977 42.8982 35.5964C43.0135 35.2344 43.1935 34.7716 43.4457 34.2015L41.6168 33.3923C41.3482 33.9992 41.1376 34.5339 40.9925 34.9895C40.8532 35.4267 40.75 35.8639 40.75 36.25H42.75ZM44.0703 36.3125C43.3418 36.3125 42.9355 36.2242 42.7464 36.1377C42.6643 36.1001 42.6737 36.0853 42.7035 36.1263C42.7412 36.1781 42.75 36.233 42.75 36.25H40.75C40.75 36.6211 40.8555 36.986 41.0865 37.3034C41.3097 37.61 41.6091 37.8166 41.9137 37.9561C42.4981 38.2237 43.2519 38.3125 44.0703 38.3125V36.3125ZM45.9272 36.1073C45.2682 36.2458 44.6498 36.3125 44.0703 36.3125V38.3125C44.8033 38.3125 45.56 38.2282 46.3385 38.0646L45.9272 36.1073ZM47.6831 35.6202C47.199 35.8046 46.6186 35.968 45.9353 36.1056L46.3303 38.0663C47.095 37.9122 47.7854 37.7214 48.3951 37.4892L47.6831 35.6202ZM49.0004 35.0776C48.6605 35.2355 48.2242 35.416 47.686 35.6191L48.3921 37.4903C48.9581 37.2767 49.4437 37.077 49.8434 36.8912L49.0004 35.0776ZM49.5369 34.7935C49.4063 34.8729 49.2264 34.9693 48.99 35.0825L49.8538 36.8863C50.1267 36.7556 50.3697 36.6278 50.5754 36.5028L49.5369 34.7935ZM51.256 35.4613C51.0993 35.3615 50.9851 35.2453 50.8998 35.1112L49.2126 36.1852C49.4618 36.5768 49.7894 36.8983 50.1815 37.1481L51.256 35.4613ZM52.0378 35.7971C51.7516 35.7236 51.4921 35.6112 51.2548 35.4605L50.1827 37.1489C50.6016 37.4149 51.0557 37.6098 51.5404 37.7342L52.0378 35.7971ZM53.2109 35.9063C52.6978 35.9063 52.3088 35.8629 52.0254 35.794L51.5527 37.7373C52.0402 37.8559 52.599 37.9063 53.2109 37.9063V35.9063ZM54.7733 35.6074C54.1545 35.8168 53.6373 35.9063 53.2109 35.9063V37.9063C53.9095 37.9063 54.6476 37.7614 55.4142 37.5019L54.7733 35.6074ZM56.3748 34.7815C55.9052 35.1281 55.3734 35.4044 54.7733 35.6074L55.4142 37.5019C56.1995 37.2363 56.9177 36.8667 57.5627 36.3904L56.3748 34.7815ZM57.4027 37.3832C57.5868 36.8678 57.758 36.3751 57.9164 35.9054L56.0211 35.2665C55.867 35.7239 55.6997 36.2052 55.5192 36.7105L57.4027 37.3832ZM52.2177 38.9253C53.6158 38.5417 55.0751 38.2456 56.5963 38.0377L56.3255 36.0561C54.7218 36.2753 53.1759 36.5885 51.6885 36.9966L52.2177 38.9253ZM50.5066 39.5965C50.9121 39.3583 51.474 39.1295 52.2178 38.9253L51.6884 36.9966C50.8385 37.2299 50.0983 37.5168 49.4934 37.8722L50.5066 39.5965ZM50.25 39.6563C50.25 39.7115 50.2385 39.7584 50.2254 39.7913C50.2131 39.8219 50.2035 39.8306 50.2132 39.8186C50.2379 39.7883 50.3187 39.7081 50.5105 39.5942L49.4895 37.8745C48.9349 38.2038 48.25 38.7698 48.25 39.6563H50.25ZM52.9141 40.0625C51.7279 40.0625 50.9605 39.9447 50.5243 39.7773C50.3136 39.6965 50.2446 39.6279 50.234 39.6158C50.2312 39.6126 50.2381 39.6201 50.2444 39.637C50.2507 39.6538 50.25 39.6629 50.25 39.6563H48.25C48.25 40.1298 48.4122 40.5682 48.724 40.9272C49.0188 41.2666 49.4077 41.491 49.8077 41.6446C50.5929 41.9459 51.6576 42.0625 52.9141 42.0625V40.0625ZM56.4686 39.7118C55.4399 39.9425 54.2574 40.0625 52.9141 40.0625V42.0625C54.3728 42.0625 55.7059 41.9325 56.9064 41.6633L56.4686 39.7118ZM57.9783 39.2296C57.5585 39.4196 57.0591 39.5821 56.4731 39.7108L56.9019 41.6643C57.5971 41.5117 58.2332 41.3096 58.803 41.0517L57.9783 39.2296ZM59.0087 38.5225C58.7076 38.8194 58.3658 39.0542 57.9783 39.2296L58.803 41.0517C59.4051 40.7791 59.9434 40.4097 60.4132 39.9463L59.0087 38.5225ZM59.5494 37.652C59.4549 37.9692 59.2833 38.2553 59.0136 38.5177L60.4083 39.9511C60.9094 39.4635 61.269 38.885 61.4662 38.223L59.5494 37.652ZM59.7618 36.9519L59.5509 37.6472L61.4647 38.2278L61.6757 37.5325L59.7618 36.9519ZM64.3289 34.6615C63.6223 35.1926 62.3654 35.7464 60.4508 36.2788L60.9867 38.2056C62.9679 37.6547 64.5184 37.021 65.5305 36.2604L64.3289 34.6615ZM64.2109 35.0469C64.2109 34.8818 64.2691 34.7592 64.3134 34.694C64.3519 34.6373 64.3773 34.6264 64.3442 34.6503L65.5152 36.2716C65.7946 36.0698 66.2109 35.6714 66.2109 35.0469H64.2109ZM64.8672 35.7734C64.8615 35.7734 64.822 35.7732 64.7613 35.7571C64.6988 35.7406 64.6025 35.7039 64.5025 35.6244C64.2637 35.4345 64.2109 35.1784 64.2109 35.0469H66.2109C66.2109 34.7331 66.1009 34.3403 65.7475 34.0592C65.4378 33.8128 65.0876 33.7734 64.8672 33.7734V35.7734ZM64.8343 35.8178C64.868 35.8019 64.8957 35.7899 64.9178 35.781C64.9401 35.7721 64.9545 35.7673 64.9617 35.7651C64.9693 35.7628 64.9657 35.7643 64.9523 35.7667C64.9395 35.769 64.9099 35.7734 64.8672 35.7734V33.7734C64.5245 33.7734 64.202 33.9043 63.9782 34.0103L64.8343 35.8178ZM61.3096 37.1524C62.4286 36.8477 63.604 36.4006 64.8343 35.8178L63.9782 34.0103C62.8335 34.5526 61.7693 34.9544 60.7842 35.2226L61.3096 37.1524ZM61.1758 32.694C60.7969 33.7516 60.4365 34.8144 60.0945 35.8826L61.9992 36.4925C62.3343 35.446 62.6874 34.4047 63.0586 33.3685L61.1758 32.694ZM61.9587 30.4695C61.8109 30.9077 61.5507 31.6473 61.1758 32.694L63.0586 33.3685C63.4337 32.3214 63.6995 31.5662 63.8538 31.1086L61.9587 30.4695ZM62.1406 29.7891C62.1406 29.7862 62.1407 29.8 62.1358 29.8345C62.1311 29.8682 62.1226 29.9144 62.1084 29.9749C62.0798 30.0972 62.0326 30.2573 61.9621 30.4597L63.8504 31.1184C64.0107 30.6589 64.1406 30.1888 64.1406 29.7891H62.1406ZM62.1991 30.0194C62.244 30.0503 62.2293 30.0508 62.2014 30.0067C62.1867 29.9834 62.1705 29.9509 62.1584 29.9101C62.1462 29.8689 62.1406 29.8275 62.1406 29.7891H64.1406C64.1406 29.1258 63.7481 28.6572 63.3322 28.3713L62.1991 30.0194ZM61.8594 29.9375C62.0554 29.9375 62.1461 29.9822 62.191 30.0137L63.3403 28.3769C62.8956 28.0647 62.3821 27.9375 61.8594 27.9375V29.9375ZM60.5617 30.0933C61.172 29.9823 61.5949 29.9375 61.8594 29.9375V27.9375C61.4155 27.9375 60.8541 28.0073 60.2039 28.1255L60.5617 30.0933ZM59.0285 30.448C59.4533 30.3173 59.9606 30.1985 60.5552 30.0944L60.2104 28.1244C59.555 28.239 58.9634 28.3755 58.4403 28.5364L59.0285 30.448ZM55.9531 29.7109C57.0199 29.7109 57.6953 29.9442 58.1127 30.2755L59.356 28.7089C58.4609 27.9985 57.2822 27.7109 55.9531 27.7109V29.7109ZM53.1697 30.2987C53.9643 29.9145 54.8851 29.7109 55.9531 29.7109V27.7109C54.6253 27.7109 53.4003 27.9657 52.2991 28.4982L53.1697 30.2987ZM51.3226 31.8696C51.7698 31.2031 52.3763 30.6801 53.1676 30.2997L52.3012 28.4972C51.207 29.0231 50.3188 29.7761 49.6618 30.7554L51.3226 31.8696ZM50.6641 34.0938C50.6641 33.2524 50.8857 32.5208 51.3226 31.8696L49.6618 30.7554C48.9945 31.75 48.6641 32.8726 48.6641 34.0938H50.6641ZM50.724 34.6754C50.6865 34.5146 50.6641 34.3224 50.6641 34.0938H48.6641C48.6641 34.4516 48.6991 34.7987 48.7764 35.1301L50.724 34.6754ZM50.0108 35.8757C50.0465 35.8608 50.0795 35.8475 50.1099 35.8358L49.3905 33.9697C49.3409 33.9888 49.2905 34.0091 49.2392 34.0306L50.0108 35.8757ZM48.6136 36.3677C49.2135 36.1782 49.6891 36.0128 50.0169 35.8732L49.2331 34.0331C48.9984 34.1331 48.599 34.2749 48.0114 34.4605L48.6136 36.3677ZM47.0625 36.6875C47.4765 36.6875 48.026 36.5497 48.6084 36.3693L48.0166 34.4588C47.7387 34.5449 47.5164 34.6047 47.3449 34.6423C47.2597 34.6609 47.1927 34.6728 47.1418 34.6798C47.1167 34.6832 47.0974 34.6852 47.0834 34.6864C47.0765 34.6869 47.0713 34.6872 47.0677 34.6874C47.064 34.6875 47.0624 34.6875 47.0625 34.6875V36.6875ZM45.4844 34.9609C45.4844 35.309 45.5492 35.755 45.8464 36.1285C46.1783 36.5457 46.6472 36.6875 47.0625 36.6875V34.6875C47.0692 34.6875 47.1212 34.6885 47.196 34.7198C47.2768 34.7536 47.3535 34.8104 47.4114 34.8832C47.5159 35.0146 47.4844 35.0972 47.4844 34.9609H45.4844ZM46.305 32.6157C46.0582 33.1439 45.8646 33.589 45.7306 33.9433C45.6638 34.1201 45.6068 34.2874 45.5652 34.4393C45.5281 34.5749 45.4844 34.764 45.4844 34.9609H47.4844C47.4844 35.0355 47.4709 35.0527 47.4944 34.967C47.5134 34.8975 47.5471 34.794 47.6014 34.6505C47.7096 34.3642 47.8793 33.9708 48.1169 33.4625L46.305 32.6157ZM46.9375 30.5234C46.9375 30.9444 46.7687 31.6235 46.305 32.6157L48.1169 33.4625C48.6219 32.3817 48.9375 31.3838 48.9375 30.5234H46.9375ZM46.6931 29.9556C46.8342 30.0502 46.9375 30.1802 46.9375 30.5234H48.9375C48.9375 29.6167 48.5825 28.8144 47.8069 28.2944L46.6931 29.9556ZM45.8828 29.7109C46.1863 29.7109 46.4478 29.791 46.6929 29.9554L47.8071 28.2946C47.2293 27.9069 46.5793 27.7109 45.8828 27.7109V29.7109ZM41.7525 30.7822C43.5363 30.0372 44.8988 29.7109 45.8828 29.7109V27.7109C44.5127 27.7109 42.8647 28.1503 40.9818 28.9366L41.7525 30.7822ZM40.4531 29.2969C40.4531 29.2817 40.454 29.3008 40.4431 29.3724C40.4331 29.4382 40.4162 29.5277 40.3905 29.6445L42.3438 30.0743C42.4017 29.8113 42.4531 29.5302 42.4531 29.2969H40.4531ZM40.5959 29.6549C40.5445 29.5957 40.5058 29.5272 40.4816 29.4565C40.4581 29.3879 40.4531 29.3314 40.4531 29.2969H42.4531C42.4531 28.9769 42.3571 28.6334 42.1073 28.3451L40.5959 29.6549ZM41.0469 29.875C41.0139 29.875 40.9393 29.8701 40.8451 29.8314C40.7447 29.7903 40.6495 29.7217 40.5754 29.6306L42.1277 28.3694C41.8219 27.9931 41.3977 27.875 41.0469 27.875V29.875ZM37.367 29.9607L41.0701 29.8747L41.0237 27.8753L37.3205 27.9612L37.367 29.9607ZM37.5859 29.3516C37.5859 29.4553 37.5583 29.5918 37.473 29.7237C37.3909 29.8508 37.2914 29.9177 37.2336 29.9475C37.1803 29.9749 37.1545 29.9756 37.1815 29.9709C37.2061 29.9667 37.2577 29.9609 37.3438 29.9609V27.9609C37.0377 27.9609 36.6563 27.995 36.3172 28.1697C36.1331 28.2646 35.9389 28.4129 35.7936 28.6377C35.6452 28.8672 35.5859 29.1176 35.5859 29.3516H37.5859ZM37.5934 29.6221L37.5856 29.3253L35.5863 29.3779L35.5941 29.6748L37.5934 29.6221ZM37.2219 31.9298C37.4575 31.075 37.5938 30.3061 37.5938 29.6484H35.5938C35.5938 30.0533 35.5061 30.6281 35.2938 31.3983L37.2219 31.9298ZM36.4519 34.262C36.739 33.5443 36.9956 32.7649 37.223 31.9256L35.2926 31.4025C35.0825 32.1778 34.8495 32.8828 34.595 33.5192L36.4519 34.262ZM36.0581 35.2672C36.1841 34.9423 36.3159 34.606 36.4534 34.2583L34.5935 33.523C34.4546 33.8743 34.3213 34.2145 34.1936 34.5435L36.0581 35.2672ZM35.5109 35.8311C35.5302 35.8211 35.5479 35.8121 35.5641 35.8042L34.6875 34.0065C34.6527 34.0235 34.6178 34.0412 34.5828 34.0595L35.5109 35.8311ZM34.1575 36.3918C34.7614 36.1698 35.2358 35.9788 35.5197 35.8265L34.5741 34.0642C34.4309 34.141 34.0824 34.2886 33.4675 34.5145L34.1575 36.3918ZM32.5625 36.7813C32.8076 36.7813 33.0686 36.7274 33.3008 36.6665C33.5488 36.6014 33.8348 36.5086 34.1529 36.3934L33.4721 34.5129C33.1861 34.6164 32.9617 34.6877 32.793 34.732C32.6085 34.7804 32.5465 34.7813 32.5625 34.7813V36.7813ZM31.4352 36.4245C31.8159 36.7575 32.3081 36.7813 32.5625 36.7813V34.7813C32.4948 34.7813 32.4801 34.7753 32.5007 34.7801C32.5128 34.7829 32.5434 34.7909 32.5852 34.8101C32.6274 34.8293 32.6878 34.8629 32.7523 34.9193L31.4352 36.4245ZM30.9766 35.1719C30.9766 35.3435 30.9886 35.5343 31.0322 35.7204C31.0721 35.8904 31.1645 36.1725 31.4114 36.4029L32.7761 34.9408C32.8648 35.0236 32.9146 35.1067 32.9408 35.1602C32.9668 35.2135 32.9767 35.2521 32.9795 35.264C32.984 35.2835 32.9766 35.2607 32.9766 35.1719H30.9766ZM31.512 33.1957C31.3504 33.6157 31.2223 33.9827 31.1333 34.29C31.0513 34.5727 30.9766 34.8888 30.9766 35.1719H32.9766C32.9766 35.1894 32.9799 35.1031 33.0542 34.8468C33.1214 34.615 33.2277 34.3061 33.3787 33.9137L31.512 33.1957ZM32.455 30.7329C32.1437 31.558 31.8297 32.3779 31.5132 33.1925L33.3774 33.9169C33.6963 33.0961 34.0126 32.2701 34.3262 31.439L32.455 30.7329ZM32.8672 29.2656C32.8672 29.4441 32.7734 29.8978 32.4562 30.7297L34.325 31.4422C34.6433 30.6075 34.8672 29.8476 34.8672 29.2656H32.8672ZM33.0099 29.6549C32.9744 29.6139 32.9361 29.5562 32.9077 29.4821C32.8792 29.4074 32.8672 29.3328 32.8672 29.2656H34.8672C34.8672 28.9146 34.7389 28.5962 34.5213 28.3451L33.0099 29.6549ZM33.4609 29.875C33.4279 29.875 33.3533 29.8701 33.2591 29.8314C33.1588 29.7903 33.0636 29.7217 32.9895 29.6306L34.5417 28.3694C34.236 27.9931 33.8117 27.875 33.4609 27.875V29.875ZM57.2924 35.3951C57.8671 34.9309 58.3036 34.2645 58.6432 33.4857L56.8099 32.6862C56.5454 33.2929 56.2735 33.6472 56.0357 33.8393L57.2924 35.3951ZM56.4684 35.8709C56.7684 35.7555 57.0452 35.596 57.2947 35.3933L56.0335 33.8411C55.9496 33.9092 55.8566 33.9633 55.7504 34.0042L56.4684 35.8709ZM55.7285 36.0632C55.9656 36.0347 56.2125 35.963 56.4472 35.8787L55.7715 33.9963C55.6 34.0579 55.5136 34.0746 55.4902 34.0774L55.7285 36.0632ZM55.0391 36.0938C55.3028 36.0938 55.544 36.0863 55.7334 36.0626L55.4853 34.078C55.4247 34.0856 55.2858 34.0938 55.0391 34.0938V36.0938ZM53.6445 35.4884C54.0043 35.8482 54.4769 36.0938 55.0391 36.0938V34.0938C55.0466 34.0938 55.0566 34.0946 55.0679 34.0971C55.0791 34.0995 55.0879 34.1027 55.0935 34.1053C55.1049 34.1105 55.0922 34.1077 55.0587 34.0742L53.6445 35.4884ZM53.0469 33.7578C53.0469 34.3381 53.1675 34.9874 53.627 35.4705L55.0761 34.092C55.1036 34.1209 55.0965 34.1304 55.0815 34.0799C55.0654 34.0259 55.0469 33.9243 55.0469 33.7578H53.0469ZM53.6415 31.7253C53.2758 32.3835 53.0469 33.0675 53.0469 33.7578H55.0469C55.0469 33.5106 55.1305 33.1634 55.3898 32.6966L53.6415 31.7253ZM55.1586 30.0161C54.535 30.4643 54.0304 31.0367 53.6449 31.7192L55.3863 32.7027C55.6363 32.2602 55.9494 31.9107 56.3258 31.6402L55.1586 30.0161ZM57.125 29.2813C56.4175 29.2813 55.7526 29.5874 55.157 30.0172L56.3274 31.639C56.7422 31.3397 56.9992 31.2813 57.125 31.2813V29.2813ZM58.7228 29.8667C58.2738 29.3511 57.5856 29.2813 57.125 29.2813V31.2813C57.1993 31.2813 57.2573 31.2849 57.301 31.2899C57.345 31.2949 57.3687 31.3008 57.3764 31.303C57.3975 31.309 57.3096 31.2892 57.2147 31.1802L58.7228 29.8667ZM59.1875 31.4063C59.1875 30.9375 59.1223 30.3087 58.7109 29.8532L57.2266 31.1937C57.1543 31.1136 57.1506 31.059 57.1622 31.1058C57.173 31.1495 57.1875 31.2436 57.1875 31.4063H59.1875ZM58.6407 33.4915C58.9674 32.7548 59.1875 32.0423 59.1875 31.4063H57.1875C57.1875 31.6244 57.1003 32.0316 56.8125 32.6804L58.6407 33.4915ZM56.7163 39.3098L57.0835 38.2707L55.1978 37.6043L54.8306 38.6434L56.7163 39.3098ZM53.6797 41.1953C54.3479 41.1953 54.9898 41.0741 55.5382 40.7549C56.1067 40.424 56.5001 39.923 56.7165 39.3091L54.8303 38.6441C54.7603 38.8427 54.6615 38.951 54.5321 39.0264C54.3826 39.1134 54.1209 39.1953 53.6797 39.1953V41.1953ZM52.4035 40.8533C52.799 41.1031 53.2441 41.1953 53.6797 41.1953V39.1953C53.5216 39.1953 53.4718 39.1625 53.4715 39.1623L52.4035 40.8533ZM51.6484 39.5234C51.6484 40.1178 51.9642 40.5803 52.4096 40.8571L53.4654 39.1585C53.4769 39.1657 53.5305 39.2025 53.5794 39.2844C53.6311 39.371 53.6484 39.4596 53.6484 39.5234H51.6484ZM55.9838 36.9499C54.7922 37.1391 53.8135 37.3804 53.108 37.7008C52.4842 37.9841 51.6484 38.5308 51.6484 39.5234H53.6484C53.6484 39.8286 53.3947 39.7672 53.935 39.5218C54.3935 39.3136 55.1609 39.1057 56.2975 38.9251L55.9838 36.9499ZM76.8672 26.2734C76.8672 25.9502 76.7542 25.6432 76.5404 25.3964C76.3434 25.1691 76.1009 25.038 75.8961 24.9592C75.5013 24.8074 75.0222 24.7656 74.5469 24.7656V26.7656C74.7371 26.7656 74.8854 26.7749 74.9973 26.7893C75.1127 26.8041 75.1663 26.8214 75.1781 26.8259C75.1933 26.8318 75.1159 26.8065 75.029 26.7062C74.983 26.6532 74.9397 26.5848 74.9091 26.5026C74.8786 26.4205 74.8672 26.3415 74.8672 26.2734H76.8672ZM76.3272 27.8862C76.4803 27.5747 76.6055 27.2956 76.6947 27.0568C76.7708 26.8529 76.8672 26.5617 76.8672 26.2734H74.8672C74.8672 26.2042 74.8786 26.1742 74.8702 26.2076C74.8637 26.2333 74.8492 26.2816 74.821 26.3573C74.7643 26.5091 74.6708 26.7222 74.5321 27.0044L76.3272 27.8862ZM75.9922 28.4531C75.9922 28.5708 75.9692 28.6542 75.9678 28.6595C75.9625 28.6803 75.9592 28.6886 75.9627 28.6784C75.9697 28.6587 75.9865 28.6153 76.0189 28.5408C76.0825 28.3943 76.1838 28.1783 76.3272 27.8862L74.5321 27.0044C74.3839 27.3061 74.2665 27.5549 74.1843 27.7444C74.1437 27.8378 74.1059 27.9302 74.0763 28.014C74.0617 28.0556 74.0446 28.1075 74.0302 28.164C74.0197 28.2049 73.9922 28.316 73.9922 28.4531H75.9922ZM76.071 28.3279C76.0006 28.3001 75.9565 28.2761 75.9318 28.2602C75.9072 28.2445 75.9075 28.2405 75.9193 28.2539C75.9325 28.2689 75.9536 28.2981 75.9702 28.3413C75.9869 28.3848 75.9922 28.4247 75.9922 28.4531H73.9922C73.9922 29.3969 74.6867 29.9311 75.3353 30.1877L76.071 28.3279ZM76.6094 28.4063C76.3434 28.4063 76.1733 28.3685 76.0712 28.328L75.3351 30.1876C75.7329 30.3451 76.1671 30.4063 76.6094 30.4063V28.4063ZM78.2146 27.9728C77.9902 28.1925 77.5298 28.4063 76.6094 28.4063V30.4063C77.7827 30.4063 78.8588 30.1409 79.6135 29.4022L78.2146 27.9728ZM78.5625 27.3281C78.5625 27.4798 78.5056 27.6888 78.2156 27.9718L79.6125 29.4032C80.1871 28.8425 80.5625 28.1452 80.5625 27.3281H78.5625ZM77.9014 26.2367C78.3887 26.5338 78.5625 26.8716 78.5625 27.3281H80.5625C80.5625 26.118 79.9758 25.159 78.9424 24.529L77.9014 26.2367ZM74.9766 25.6875C76.4531 25.6875 77.3786 25.9158 77.8988 26.2351L78.945 24.5306C77.9547 23.9227 76.5833 23.6875 74.9766 23.6875V25.6875ZM70.7064 26.6623C72.1715 26.0047 73.5924 25.6875 74.9766 25.6875V23.6875C73.2774 23.6875 71.5785 24.0786 69.8874 24.8377L70.7064 26.6623ZM68.7649 27.8052C69.3819 27.3508 70.0304 26.9696 70.7107 26.6604L69.8831 24.8396C69.0738 25.2075 68.3056 25.6597 67.5789 26.1948L68.7649 27.8052ZM67.1622 29.2719C67.6151 28.7489 68.1479 28.2596 68.7649 27.8052L67.5789 26.1948C66.8521 26.73 66.2079 27.3188 65.6503 27.9625L67.1622 29.2719ZM66.1274 30.9521C66.3835 30.332 66.7279 29.7732 67.1622 29.2719L65.6503 27.9625C65.0742 28.6278 64.6165 29.3712 64.2789 30.1886L66.1274 30.9521ZM65.7578 32.7734C65.7578 32.1593 65.8786 31.5543 66.1274 30.9521L64.2789 30.1886C63.9339 31.0238 63.7578 31.8876 63.7578 32.7734H65.7578ZM66.6468 35.0697C66.0785 34.5454 65.7578 33.8198 65.7578 32.7734H63.7578C63.7578 34.2792 64.2444 35.5745 65.2907 36.5397L66.6468 35.0697ZM67.9325 35.7365C67.3351 35.5595 66.9238 35.3259 66.6478 35.0706L65.2897 36.5388C65.847 37.0543 66.5556 37.4145 67.3643 37.6541L67.9325 35.7365ZM70.125 36C69.2509 36 68.5219 35.9055 67.9241 35.7341L67.3728 37.6566C68.1917 37.8914 69.1137 38 70.125 38V36ZM72.3618 35.7577C71.7481 35.9145 71.0062 36 70.125 36V38C71.1292 38 72.0436 37.9032 72.8569 37.6955L72.3618 35.7577ZM73.168 37.7656C73.2912 37.5808 73.4043 37.3788 73.5089 37.1635L71.7099 36.2897C71.6374 36.4389 71.5682 36.5598 71.5039 36.6562L73.168 37.7656ZM71.8307 38.9426C72.3637 38.6328 72.8236 38.2547 73.1533 37.7871L71.5186 36.6348C71.4003 36.8026 71.1884 37.0027 70.8255 37.2136L71.8307 38.9426ZM71.7422 38.7422C71.7422 38.8407 71.7194 38.9235 71.6928 38.9833C71.6678 39.0398 71.6425 39.0692 71.6385 39.0737C71.6345 39.0783 71.6439 39.0668 71.6769 39.0418C71.7092 39.0172 71.7573 38.9848 71.8255 38.9457L70.8307 37.2106C70.585 37.3515 70.3363 37.5267 70.1388 37.7505C69.9369 37.9794 69.7422 38.3151 69.7422 38.7422H71.7422ZM73.0625 38.2344C72.306 38.2344 71.811 38.1928 71.5298 38.1331C71.3812 38.1016 71.3723 38.0809 71.4241 38.1139C71.4901 38.1559 71.7422 38.356 71.7422 38.7422H69.7422C69.7422 39.2925 70.091 39.6362 70.3503 39.8012C70.5955 39.9572 70.8766 40.0391 71.1148 40.0896C71.607 40.194 72.2721 40.2344 73.0625 40.2344V38.2344ZM74.9077 37.9413C74.4224 38.1273 73.8145 38.2344 73.0625 38.2344V40.2344C73.998 40.2344 74.8589 40.1019 75.6236 39.8088L74.9077 37.9413ZM75.8328 37.2685C75.6635 37.5296 75.3852 37.7636 74.9171 37.9377L75.6142 39.8123C76.4064 39.5177 77.0657 39.0433 77.5109 38.3565L75.8328 37.2685ZM76.6208 35.0235C76.4149 35.7055 76.2412 36.2395 76.0989 36.6319C76.0278 36.8281 75.9675 36.9808 75.9177 37.0945C75.893 37.1511 75.8728 37.1937 75.857 37.2246C75.8405 37.2568 75.8331 37.2679 75.8352 37.2649L77.5086 38.3602C77.6742 38.1072 77.8306 37.7235 77.9792 37.3135C78.139 36.8725 78.3247 36.2997 78.5355 35.6015L76.6208 35.0235ZM77.5847 32.2508C77.3542 32.7052 77.0298 33.6686 76.6208 35.0235L78.5355 35.6015C78.9598 34.196 79.2343 33.4198 79.3684 33.1555L77.5847 32.2508ZM77.75 31.9375C77.75 31.9069 77.7523 31.8842 77.7539 31.8714C77.7548 31.8647 77.7556 31.8597 77.7562 31.8565C77.7567 31.8533 77.7571 31.8516 77.7572 31.8514C77.7572 31.8513 77.7562 31.8558 77.7533 31.8655C77.7504 31.8751 77.7461 31.8885 77.7399 31.9059C77.7135 31.9797 77.665 32.0925 77.5847 32.2508L79.3684 33.1555C79.4704 32.9544 79.5586 32.7599 79.6234 32.5785C79.6819 32.4146 79.75 32.1847 79.75 31.9375H77.75ZM77.9793 32.4314C78.0643 32.4553 78.0197 32.4595 77.9411 32.3858C77.8963 32.3439 77.8442 32.2796 77.8049 32.1913C77.7652 32.102 77.75 32.0133 77.75 31.9375H79.75C79.75 31.5382 79.5839 31.1845 79.3089 30.9267C79.0636 30.6968 78.769 30.5759 78.5207 30.5061L77.9793 32.4314ZM76.1875 32.3203C77.2547 32.3203 77.7946 32.3767 77.9654 32.4274L78.5346 30.5101C78.0387 30.3629 77.2037 30.3203 76.1875 30.3203V32.3203ZM73.7118 32.5337C74.3759 32.3953 75.1973 32.3203 76.1875 32.3203V30.3203C75.1048 30.3203 74.1397 30.4016 73.3039 30.5757L73.7118 32.5337ZM73.3828 32.2266C73.3828 32.3848 73.3271 32.519 73.2619 32.6087C73.2058 32.6858 73.1587 32.7092 73.1768 32.6984C73.1924 32.6891 73.2401 32.6643 73.3358 32.6319C73.4293 32.6003 73.553 32.5668 73.7118 32.5337L73.3039 30.5757C72.8891 30.6621 72.4804 30.7848 72.1513 30.9813C71.8242 31.1767 71.3828 31.5736 71.3828 32.2266H73.3828ZM73.261 31.7029C73.1798 31.6885 73.1274 31.6742 73.0977 31.6642C73.0662 31.6536 73.0755 31.6529 73.1068 31.6735C73.1392 31.6947 73.2116 31.7496 73.2764 31.854C73.3462 31.9664 73.3828 32.0977 73.3828 32.2266H71.3828C71.3828 32.7618 71.6918 33.1373 72.0103 33.3461C72.2932 33.5315 72.6236 33.621 72.9109 33.6721L73.261 31.7029ZM74.0664 31.9911C73.8138 31.8468 73.5421 31.7526 73.2597 31.7027L72.9122 33.6723C72.9839 33.685 73.0351 33.7053 73.0742 33.7276L74.0664 31.9911ZM74.7891 33.1797C74.7891 32.5848 74.4196 32.1929 74.0664 31.9911L73.0742 33.7276C73.0534 33.7158 72.9791 33.6692 72.9086 33.5659C72.8307 33.4519 72.7891 33.3143 72.7891 33.1797H74.7891ZM74.4891 34.5139C74.5771 34.2205 74.6469 33.972 74.6956 33.7743C74.7345 33.6165 74.7891 33.3825 74.7891 33.1797H72.7891C72.7891 33.119 72.7969 33.0932 72.789 33.137C72.7833 33.1687 72.7723 33.2202 72.7536 33.296C72.7164 33.4473 72.6573 33.6598 72.5734 33.9392L74.4891 34.5139ZM73.8997 36.2479C74.1196 35.6873 74.3167 35.1065 74.4914 34.5059L72.5711 33.9473C72.4125 34.4925 72.2346 35.0159 72.0378 35.5177L73.8997 36.2479ZM72.7812 36.8906C72.8741 36.8906 72.9872 36.8883 73.0928 36.8751L72.8447 34.8905C72.8496 34.8899 72.8532 34.8896 72.8554 34.8893C72.8576 34.8891 72.8588 34.889 72.8588 34.889C72.8589 34.889 72.8581 34.8891 72.8564 34.8892C72.8547 34.8893 72.8522 34.8894 72.849 34.8895C72.8353 34.8901 72.8133 34.8906 72.7812 34.8906V36.8906ZM69.7748 35.4676C70.4829 36.4499 71.5473 36.8906 72.7812 36.8906V34.8906C72.0569 34.8906 71.6577 34.6595 71.3971 34.298L69.7748 35.4676ZM68.8672 32.0703C68.8672 33.3905 69.1279 34.5606 69.7718 35.4635L71.4001 34.3022C71.0857 33.8613 70.8672 33.1564 70.8672 32.0703H68.8672ZM70.0505 28.0217C69.2739 29.3063 68.8672 30.6603 68.8672 32.0703H70.8672C70.8672 31.0636 71.1532 30.0636 71.762 29.0564L70.0505 28.0217ZM71.2596 26.4204C70.8046 26.899 70.4012 27.4352 70.048 28.0258L71.7645 29.0523C72.0467 28.5804 72.3621 28.1635 72.7092 27.7984L71.2596 26.4204ZM72.83 25.2326C72.2528 25.5245 71.7301 25.9255 71.2596 26.4204L72.7092 27.7984C73.0407 27.4495 73.3826 27.1943 73.7325 27.0174L72.83 25.2326ZM74.5469 24.7656C73.9629 24.7656 73.3823 24.9503 72.8261 25.2346L73.7364 27.0154C74.1177 26.8205 74.3809 26.7656 74.5469 26.7656V24.7656ZM92.9375 35.7734C92.8887 35.7734 92.6661 35.7631 92.4566 35.5655C92.236 35.3575 92.2109 35.115 92.2109 35.0313H94.2109C94.2109 34.7756 94.1403 34.4042 93.8286 34.1103C93.5279 33.8268 93.1686 33.7734 92.9375 33.7734V35.7734ZM92.9334 35.7924C92.9565 35.7848 92.9751 35.779 92.9897 35.7749C93.0044 35.7707 93.0133 35.7686 93.0171 35.7678C93.0212 35.7669 93.017 35.768 93.0058 35.7694C93 35.7702 92.9914 35.7712 92.9804 35.772C92.9694 35.7728 92.955 35.7734 92.9375 35.7734V33.7734C92.6953 33.7734 92.4608 33.8418 92.301 33.8951L92.9334 35.7924ZM87.3438 36.9453C88.7236 36.9453 90.603 36.5376 92.9217 35.7963L92.3126 33.8913C90.0376 34.6186 88.4014 34.9453 87.3438 34.9453V36.9453ZM86.3013 36.8609C86.6377 36.918 86.9857 36.9453 87.3438 36.9453V34.9453C87.0872 34.9453 86.8518 34.9258 86.6362 34.8891L86.3013 36.8609ZM83.7397 34.4699C83.8057 35.1095 84.0816 35.6759 84.5744 36.1043C85.0438 36.5124 85.6456 36.74 86.2873 36.8584L86.6502 34.8916C86.219 34.8121 85.9953 34.6894 85.8866 34.5949C85.8012 34.5207 85.7464 34.4322 85.7291 34.2645L83.7397 34.4699ZM87.8904 32.9089C86.9675 33.1237 85.8927 33.279 84.6608 33.3699L84.8079 35.3645C86.1177 35.2679 87.2982 35.1002 88.3439 34.8568L87.8904 32.9089ZM89.8457 32.0537C89.4052 32.4046 88.7704 32.7029 87.8893 32.9091L88.3451 34.8565C89.4223 34.6044 90.3552 34.2048 91.0918 33.6182L89.8457 32.0537ZM90.3594 31.0234C90.3594 31.4489 90.209 31.7669 89.8491 32.0511L91.0884 33.6208C91.916 32.9675 92.3594 32.0771 92.3594 31.0234H90.3594ZM89.8766 30.1613C90.229 30.3952 90.3594 30.6536 90.3594 31.0234H92.3594C92.3594 29.9558 91.8699 29.084 90.9828 28.495L89.8766 30.1613ZM87.5156 29.7109C88.7828 29.7109 89.509 29.9152 89.8734 30.1591L90.986 28.4972C90.1212 27.9182 88.9047 27.7109 87.5156 27.7109V29.7109ZM84.1984 30.2992C85.1968 29.9109 86.299 29.7109 87.5156 29.7109V27.7109C86.076 27.7109 84.7251 27.9485 83.4735 28.4352L84.1984 30.2992ZM81.9152 31.8824C82.4629 31.2117 83.2099 30.6791 84.1946 30.3007L83.4772 28.4337C82.212 28.9199 81.1621 29.6425 80.366 30.6176L81.9152 31.8824ZM81.1406 34.0625C81.1406 33.2349 81.3948 32.5207 81.9157 31.8819L80.3656 30.6181C79.5531 31.6147 79.1406 32.7755 79.1406 34.0625H81.1406ZM85.4219 36.3125C83.7315 36.3125 82.6322 36.0466 81.985 35.6484C81.4175 35.2991 81.1406 34.8189 81.1406 34.0625H79.1406C79.1406 35.4728 79.744 36.6176 80.9368 37.3517C82.0501 38.0367 83.5914 38.3125 85.4219 38.3125V36.3125ZM90.0839 35.5952C88.7338 36.0674 87.1841 36.3125 85.4219 36.3125V38.3125C87.368 38.3125 89.1464 38.042 90.7443 37.483L90.0839 35.5952ZM91.517 35.0466C91.188 35.1923 90.7142 35.3748 90.0841 35.5951L90.7441 37.4831C91.3952 37.2554 91.9265 37.0526 92.3268 36.8753L91.517 35.0466ZM92.3378 34.6329C92.1283 34.7533 91.8532 34.8928 91.5061 35.0515L92.3376 36.8704C92.7197 36.6958 93.054 36.528 93.3341 36.3671L92.3378 34.6329ZM92.2109 35.0313C92.2109 34.8444 92.2865 34.7111 92.3363 34.6488C92.3768 34.5982 92.3942 34.6 92.3321 34.6362L93.3398 36.3638C93.667 36.173 94.2109 35.7571 94.2109 35.0313H92.2109ZM85.0081 34.4718C86.0337 34.1889 86.9144 33.7363 87.5906 33.0735L86.1906 31.6452C85.8147 32.0137 85.2632 32.3268 84.4763 32.5438L85.0081 34.4718ZM84.565 30.5724C84.0978 31.4393 83.8284 32.3958 83.7454 33.4276L85.739 33.588C85.8018 32.8073 86.0012 32.1232 86.3256 31.5214L84.565 30.5724ZM85.5045 29.4096C85.1137 29.7252 84.8028 30.1232 84.5615 30.579L86.3291 31.5148C86.4628 31.2622 86.6103 31.0873 86.7611 30.9655L85.5045 29.4096ZM86.9219 28.8594C86.3702 28.8594 85.8937 29.1011 85.5117 29.4038L86.7539 30.9713C86.924 30.8364 86.9736 30.8594 86.9219 30.8594V28.8594ZM88.1679 29.2941C87.7843 28.9425 87.3042 28.8594 86.9219 28.8594V30.8594C86.9781 30.8594 86.9881 30.8661 86.9673 30.8598C86.9429 30.8524 86.8822 30.8287 86.8165 30.7684L88.1679 29.2941ZM88.6797 30.4922C88.6797 30.0614 88.5287 29.6249 88.1679 29.2941L86.8165 30.7684C86.7723 30.7279 86.7323 30.6727 86.7065 30.6092C86.6819 30.5487 86.6797 30.5044 86.6797 30.4922H88.6797ZM87.5906 33.0735C88.3063 32.372 88.6797 31.4931 88.6797 30.4922H86.6797C86.6797 30.9496 86.527 31.3155 86.1906 31.6452L87.5906 33.0735Z" fill="black" mask="url(#path-1-inside-1_84_724)"/>
</g>
<defs>
<filter id="filter0_ddd_84_724" x="0.695312" y="0.70401" width="96.5156" height="48.3585" filterUnits="userSpaceOnUse" color-interpolation-filters="sRGB">
<feFlood flood-opacity="0" result="BackgroundImageFix"/>
<feColorMatrix in="SourceAlpha" type="matrix" values="0 0 0 0 0 0 0 0 0 0 0 0 0 0 0 0 0 0 127 0" result="hardAlpha"/>
<feOffset dy="4"/>
<feGaussianBlur stdDeviation="2"/>
<feComposite in2="hardAlpha" operator="out"/>
<feColorMatrix type="matrix" values="0 0 0 0 0 0 0 0 0 0 0 0 0 0 0 0 0 0 0.25 0"/>
<feBlend mode="normal" in2="BackgroundImageFix" result="effect1_dropShadow_84_724"/>
<feColorMatrix in="SourceAlpha" type="matrix" values="0 0 0 0 0 0 0 0 0 0 0 0 0 0 0 0 0 0 127 0" result="hardAlpha"/>
<feOffset dy="4"/>
<feGaussianBlur stdDeviation="2"/>
<feComposite in2="hardAlpha" operator="out"/>
<feColorMatrix type="matrix" values="0 0 0 0 0 0 0 0 0 0 0 0 0 0 0 0 0 0 0.25 0"/>
<feBlend mode="normal" in2="effect1_dropShadow_84_724" result="effect2_dropShadow_84_724"/>
<feColorMatrix in="SourceAlpha" type="matrix" values="0 0 0 0 0 0 0 0 0 0 0 0 0 0 0 0 0 0 127 0" result="hardAlpha"/>
<feOffset dy="4"/>
<feGaussianBlur stdDeviation="2"/>
<feComposite in2="hardAlpha" operator="out"/>
<feColorMatrix type="matrix" values="0 0 0 0 0 0 0 0 0 0 0 0 0 0 0 0 0 0 0.25 0"/>
<feBlend mode="normal" in2="effect2_dropShadow_84_724" result="effect3_dropShadow_84_724"/>
<feBlend mode="normal" in="SourceGraphic" in2="effect3_dropShadow_84_724" result="shape"/>
</filter>
</defs>
</svg>
