<svg width="30" height="26" viewBox="0 0 30 26" fill="none" xmlns="http://www.w3.org/2000/svg">
<path d="M5 0C2.23875 0 0 1.94025 0 4.33333V21.6667C0 24.0598 2.23875 26 5 26H25C27.7612 26 30 24.0598 30 21.6667V4.33333C30 1.94025 27.7612 0 25 0H5ZM15 4.33333C17.7569 4.33333 20 6.27738 20 8.66667C20 11.056 17.7569 13 15 13C12.2431 13 10 11.056 10 8.66667C10 6.27738 12.2431 4.33333 15 4.33333ZM15 6.5C14.337 6.5 13.7011 6.72827 13.2322 7.1346C12.7634 7.54093 12.5 8.09203 12.5 8.66667C12.5 9.2413 12.7634 9.7924 13.2322 10.1987C13.7011 10.6051 14.337 10.8333 15 10.8333C15.663 10.8333 16.2989 10.6051 16.7678 10.1987C17.2366 9.7924 17.5 9.2413 17.5 8.66667C17.5 8.09203 17.2366 7.54093 16.7678 7.1346C16.2989 6.72827 15.663 6.5 15 6.5ZM10.6165 13.5417C10.8566 13.5399 11.0998 13.598 11.3147 13.7215C11.3566 13.7448 12.9519 14.625 15 14.625C17.0656 14.625 18.6709 13.7297 18.6865 13.7205C19.2615 13.3944 20.0357 13.531 20.415 14.0294C20.7938 14.5272 20.6409 15.1954 20.0684 15.5264C19.9971 15.5675 18.6193 16.3495 16.6187 16.6626L20.2588 19.8174C20.7469 20.2404 20.7469 20.9262 20.2588 21.3493C20.0144 21.5611 19.695 21.6667 19.375 21.6667C19.055 21.6667 18.7356 21.5611 18.4912 21.3493L15 18.3236L11.5088 21.3493C11.0207 21.7723 10.2293 21.7723 9.74121 21.3493C9.25309 20.9262 9.25309 20.2404 9.74121 19.8174L13.3813 16.6626C11.3801 16.3495 10.0029 15.5681 9.93164 15.5264C9.35727 15.1949 9.20246 14.5219 9.58496 14.0241C9.82402 13.7136 10.2162 13.5446 10.6165 13.5417Z" fill="white"/>
</svg>
