<svg width="32" height="26" viewBox="0 0 32 26" fill="none" xmlns="http://www.w3.org/2000/svg">
<path d="M31.3957 0.357424C30.8499 -0.0559772 29.9925 -0.115127 29.1061 0.202724H29.1046C28.1723 0.536825 2.71383 10.2895 1.67744 10.6879C1.48894 10.7464 -0.157344 11.295 0.0122335 12.517C0.163616 13.6188 1.48676 14.0751 1.64833 14.1277L8.12066 16.107C8.55006 17.3836 10.133 22.0935 10.4831 23.0997C10.7014 23.7269 11.0573 24.5511 11.6811 24.7208C12.2284 24.9093 12.7728 24.737 13.125 24.49L17.0821 21.2121L23.47 25.6614L23.6221 25.7426C24.0559 25.9142 24.4714 26 24.8681 26C25.1745 26 25.4685 25.9487 25.7494 25.846C26.7065 25.4949 27.0893 24.6805 27.1294 24.5882L31.9008 2.43808C32.1919 1.25508 31.7873 0.653175 31.3957 0.357424ZM13.8288 16.8987L11.6454 22.0987L9.462 15.5987L26.2014 4.54864L13.8288 16.8987Z" fill="white"/>
</svg>
