<svg width="45" height="23" viewBox="0 0 45 23" fill="none" xmlns="http://www.w3.org/2000/svg">
<path d="M24.1184 0.130656C21.7656 0.140428 20.2653 0.142953 18.1502 0.142953C16.3812 0.142953 15.3877 0.778129 15.3561 1.15701C15.3273 1.50341 16.2301 1.78351 16.7791 2.06383C17.309 2.35523 17.7876 3.28026 17.7876 3.90506V9.35521C17.7876 9.87314 17.6549 10.2339 17.1832 10.5715C16.9585 10.7323 16.6914 10.7751 16.4026 10.7737C16.169 10.7726 15.8512 10.7338 15.6324 10.4826C13.3023 7.80715 13.2946 7.47677 10.0304 2.08528C9.87208 1.82378 9.71566 1.54634 9.39144 1.33776C9.06721 1.12917 8.58675 0.99157 7.81651 0.99157C5.19279 0.99157 3.57357 1.02527 1.84837 1.02527C0.215396 1.02527 0.372468 1.91356 0.591194 2.31811C2.54897 5.93913 4.53676 9.39657 6.82183 12.9059C9.49783 17.0157 11.9442 19.4842 16.0607 21.2573C17.0162 21.6689 18.739 22.0937 20.7302 22.0937H24.9611C25.5047 22.0937 26.4082 21.7132 26.4082 21.2022V18.3867C26.4082 17.5815 27.3133 17.2888 27.807 17.0908C28.3887 16.8576 28.9987 17.2253 29.306 17.5166C31.6712 19.7596 31.4024 19.5155 33.5576 21.5238C34.0446 21.9777 34.4123 22.2162 35.3328 22.2162C41.5487 22.2162 41.5538 22.2268 43.0382 22.2162C43.4458 22.2133 44.0511 21.6709 44.1849 21.4595C44.3615 21.1804 44.7629 20.1842 44.1193 19.5386C41.9349 17.3475 39.7083 15.3414 37.5743 13.3502C37.4116 13.1983 37.2887 12.9928 37.2842 12.7834C37.2793 12.5544 37.4234 12.332 37.5743 12.1462C39.9677 9.19947 41.9447 6.70428 44.0951 3.60483C44.7941 2.59732 44.7037 1.88376 44.5752 1.63799C44.4263 1.35338 43.9682 0.960371 43.4423 0.957871C40.5707 0.943579 39.3286 0.907918 36.2654 0.911917C35.3504 0.913143 34.5401 0.850808 34.0377 1.82794C32.6914 4.44632 30.4948 8.44178 28.5876 10.1027C28.2354 10.4093 27.7651 10.6371 27.3546 10.6389C26.9441 10.6406 26.5076 10.3926 26.4462 9.79943C26.3993 6.94972 26.4383 4.5185 26.4221 1.72684C26.4171 0.873523 26.0114 0.653967 25.7037 0.464631C25.2862 0.207796 24.6265 0.128551 24.1184 0.130656Z" fill="white"/>
</svg>
